<svg width="787" height="1000" viewBox="0 0 787 1000" fill="none" xmlns="http://www.w3.org/2000/svg">
<g clip-path="url(#clip0_427_2766)">
<path d="M624.215 774.444C638.174 727.308 645.933 675.111 645.933 620.191C645.933 597.029 642.851 576.495 637.367 558.293C635.794 558.817 631.472 562.594 629.187 587.733C628.308 597.406 628.978 607.542 629.84 620.564C631.748 649.41 634.593 692.418 623.604 775.931C623.604 775.931 623.819 775.422 624.215 774.444Z" fill="#04ABDF" fill-opacity="0.2"/>
<path d="M148.7 559.019C143.352 577.041 140.351 597.336 140.351 620.191C140.351 675.842 148.317 728.698 162.63 776.325C151.701 693.068 154.54 650.148 156.445 621.347C157.307 608.325 157.977 598.189 157.098 588.516C154.697 562.094 150.045 559.27 148.7 559.019Z" fill="#04ABDF" fill-opacity="0.2"/>
<path d="M624.054 774.984C638.115 727.707 645.933 675.321 645.933 620.191C645.933 597.565 642.992 577.448 637.744 559.562C646.25 569.107 654.332 584.141 657.729 595.694C662.733 612.708 670.118 663.347 624.054 774.984Z" fill="#04ABDF"/>
<path d="M148.62 559.289C143.322 577.244 140.351 597.45 140.351 620.191C140.351 675.878 148.327 728.766 162.657 776.416C115.938 663.78 123.365 612.781 128.39 595.694C131.82 584.03 140.024 568.819 148.62 559.289Z" fill="#04ABDF"/>
<path d="M286.069 687.781C269.093 724.025 305.205 840.51 392.345 840.51C479.484 840.51 515.596 724.025 498.62 687.781C490.125 669.642 443.887 663.477 392.345 663.477C340.802 663.477 294.565 669.642 286.069 687.781Z" fill="#04ABDF" fill-opacity="0.2"/>
<path d="M392.345 829.346C467.305 829.346 502.485 726.445 487.882 693.526C480.574 677.051 436.683 671.451 392.345 671.451C348.006 671.451 304.116 677.051 296.807 693.526C282.204 726.445 317.385 829.346 392.345 829.346Z" fill="#04ABDF"/>
<path d="M325.36 346.093C325.36 374.279 302.51 385.965 274.323 385.965C246.136 385.965 223.286 374.279 223.286 346.093C223.286 317.906 246.136 291.866 274.323 291.866C302.51 291.866 325.36 317.906 325.36 346.093Z" fill="#04ABDF"/>
<path d="M558.214 346.093C558.214 374.279 535.364 385.965 507.177 385.965C478.991 385.965 456.141 374.279 456.141 346.093C456.141 317.906 478.991 291.866 507.177 291.866C535.364 291.866 558.214 317.906 558.214 346.093Z" fill="#04ABDF"/>
<path d="M314.993 65.4065C314.993 56.0624 316.668 46.2993 319.553 37.403C313.014 50.7076 307.75 76.4839 319.898 89.2129C334.981 105.018 368.108 109.991 393.941 110.047C419.754 109.991 451.322 105.018 466.394 89.2129C479.849 75.103 471.926 44.9614 464.588 33.5459C468.291 43.4244 470.495 54.6909 470.495 65.4065C470.495 87.6314 449.953 101.957 393.142 102.089L392.744 102.089C392.672 102.089 392.6 102.089 392.528 102.089C392.467 102.088 392.406 102.088 392.345 102.088C335.534 101.956 314.993 87.6314 314.993 65.4065Z" fill="#04ABDF" fill-opacity="0.2"/>
<path d="M751.013 373.27C748.066 373.72 745.095 373.96 742.183 373.96C727.127 373.96 717.424 360.044 717.334 321.558C717.334 321.468 717.333 321.378 717.333 321.288L717.333 321.018C717.423 282.532 727.127 268.617 742.183 268.617C747.357 268.617 752.72 269.375 757.797 270.719C757.768 270.407 757.739 270.096 757.709 269.785C748.193 266.019 733.265 263.869 725.492 271.355C714.744 281.707 711.363 304.441 711.325 322.169C711.363 339.722 714.744 361.188 725.492 371.437C731.5 377.166 741.782 377.196 750.535 375.192C750.697 374.553 750.856 373.913 751.013 373.27Z" fill="#04ABDF" fill-opacity="0.2"/>
<path d="M27.0083 269.528C36.2216 265.234 53.1383 262.01 61.592 270.072C72.3396 280.321 75.7211 301.787 75.7593 319.34C75.7211 337.069 72.3396 359.803 61.592 370.154C54.9084 376.591 42.9348 375.904 33.6605 373.191C33.52 372.615 33.3812 372.038 33.2442 371.459C36.9157 372.153 40.6598 372.531 44.3095 372.531C59.3655 372.531 69.0699 358.615 69.1597 320.129L69.1595 319.859C69.1596 319.81 69.1594 319.762 69.1593 319.713L69.159 319.589C69.0693 281.103 59.3655 267.188 44.3095 267.188C38.5511 267.188 32.5578 268.127 26.9854 269.768C26.993 269.688 27.0006 269.608 27.0083 269.528Z" fill="#04ABDF" fill-opacity="0.2"/>
<path d="M321.372 32.3129C317.385 42.4803 314.992 54.2427 314.992 65.407C314.992 66.4777 315.04 67.53 315.137 68.5633C316.979 88.1625 336.605 100.912 386.013 102.012C388.556 102.054 390.949 102.067 393.142 102.072C394.652 102.068 396.258 102.061 397.941 102.043C451.115 101.129 470.495 86.9944 470.495 65.407C470.495 54.4475 468.189 42.9118 464.333 32.8742C468.11 46.1703 470.29 64.351 464.115 74.1628C454.196 89.9236 415.599 92.4458 393.142 92.5031C370.685 92.4458 332.089 89.9236 322.169 74.1628C314.769 62.4037 319.369 38.6243 324.336 25.6387C323.328 27.6507 322.386 29.7602 321.517 31.9451C321.514 31.9542 321.51 31.9634 321.506 31.9726C321.461 32.0858 321.417 32.1992 321.372 32.3129Z" fill="#04ABDF"/>
<path d="M764.219 369.787C757.42 372.399 749.606 373.96 742.182 373.96C727.545 373.96 717.967 360.809 717.362 324.715C717.351 323.609 717.346 322.554 717.344 321.559C717.384 304.959 718.065 271.422 739.423 268.783C740.321 268.672 741.241 268.617 742.182 268.617C749.827 268.617 757.886 270.273 764.825 273.027C766.314 273.618 767.752 274.26 769.123 274.947C760.326 271.582 744.217 268.466 736.251 273.479C725.574 280.199 723.865 306.346 723.826 321.559C723.865 336.772 725.574 362.919 736.251 369.639C742.897 373.822 755.212 372.345 764.219 369.787Z" fill="#04ABDF"/>
<path d="M25.8698 369.611C22.8635 368.666 19.9955 367.517 17.3721 366.203C26.1696 369.567 42.2762 372.682 50.2414 367.669C60.9182 360.95 62.6269 334.804 62.6658 319.59C62.627 304.377 60.9185 278.23 50.2414 271.51C43.5954 267.327 31.2814 268.803 22.2745 271.361C29.0736 268.749 36.8872 267.188 44.3104 267.188C58.936 267.188 68.511 280.32 69.1288 316.349C69.1407 317.486 69.1456 318.57 69.148 319.59C69.1065 336.876 68.3698 372.531 44.3099 372.531C38.1651 372.531 31.7527 371.461 25.8698 369.611Z" fill="#04ABDF"/>
<path d="M467.705 43.5758C469.493 50.7071 470.495 58.1823 470.495 65.407C470.495 65.4435 470.495 65.48 470.495 65.5164C463.848 94.2227 417.307 94.8555 393.94 94.8961C369.423 94.8535 317.888 94.1591 315.11 61.0739C315.513 53.5132 316.945 45.8105 319.166 38.626C317.619 49.1493 317.847 60.1175 322.17 66.9854C332.207 82.9344 371.611 85.3267 393.94 85.3267C416.269 85.3267 454.077 82.9344 464.115 66.9854C467.762 61.191 468.494 52.4779 467.705 43.5758Z" fill="#04ABDF" fill-opacity="0.2"/>
<path d="M756.97 372.071C752.14 373.282 747.076 373.961 742.182 373.961C742.157 373.961 742.132 373.961 742.107 373.96C722.662 369.457 722.233 337.929 722.206 322.099C722.234 305.491 722.705 270.579 745.118 268.697C750.24 268.97 755.458 269.94 760.325 271.444C753.196 270.396 745.766 270.551 741.113 273.479C730.309 280.279 728.688 306.973 728.688 322.099C728.688 337.226 730.309 362.839 741.113 369.639C745.038 372.109 750.94 372.606 756.97 372.071Z" fill="#04ABDF" fill-opacity="0.2"/>
<path d="M41.3758 372.452C36.2536 372.179 31.0353 371.208 26.168 369.704C33.297 370.752 40.7275 370.598 45.3802 367.669C56.1846 360.87 57.8053 334.176 57.8053 319.049C57.8053 303.923 56.1846 278.31 45.3802 271.51C41.4549 269.04 35.5524 268.543 29.5219 269.078C34.3527 267.867 39.4165 267.188 44.3105 267.188C44.3356 267.188 44.3607 267.188 44.3857 267.188C63.8318 271.692 64.2604 303.22 64.288 319.049C64.2591 335.658 63.7887 370.57 41.3758 372.452Z" fill="#04ABDF" fill-opacity="0.2"/>
</g>
<defs>
<clipPath id="clip0_427_2766">
<rect width="786.49" height="1000" fill="white"/>
</clipPath>
</defs>
</svg>
