<svg width="787" height="1000" viewBox="0 0 787 1000" fill="none" xmlns="http://www.w3.org/2000/svg">
<g clip-path="url(#clip0_427_2717)">
<path d="M46.2519 698.565C17.5443 583.732 97.2895 524.721 151.515 550.24C205.74 575.758 144.338 596.492 151.515 663.477C158.692 730.463 170.825 773.525 181.818 800.639C192.811 827.752 196.97 848.485 174.641 848.485C152.313 848.485 74.9595 813.398 46.2519 698.565Z" fill="#D7DDE0"/>
<path d="M739.867 698.565C768.575 583.732 688.83 524.721 634.605 550.24C580.379 575.758 641.782 596.492 634.605 663.477C627.427 730.463 615.294 773.525 604.301 800.639C593.308 827.752 589.15 848.485 611.478 848.485C633.806 848.485 711.16 813.398 739.867 698.565Z" fill="#D7DDE0"/>
<path d="M645.933 620.191C645.933 829.953 532.754 1000 393.142 1000C253.529 1000 140.351 829.953 140.351 620.191C140.351 410.428 393.142 416.284 393.142 416.284C393.142 416.284 645.933 410.428 645.933 620.191Z" fill="#D7DDE0"/>
<mask id="mask0_427_2717" style="mask-type:alpha" maskUnits="userSpaceOnUse" x="140" y="416" width="506" height="584">
<path d="M645.933 620.191C645.933 829.953 532.754 1000 393.142 1000C253.529 1000 140.351 829.953 140.351 620.191C140.351 410.428 393.142 416.284 393.142 416.284C393.142 416.284 645.933 410.428 645.933 620.191Z" fill="#E9EFF1"/>
</mask>
<g mask="url(#mask0_427_2717)">
<path d="M629.983 537.359C629.983 554.061 594.99 581.734 542.074 595.252C489.158 608.771 464.407 600.181 414.051 600.181C363.696 600.181 315.047 604.952 263.838 595.252C212.629 585.552 156.299 553.322 156.299 537.359C156.299 509.252 248.54 494.418 387.593 494.418C526.647 494.418 629.983 509.252 629.983 537.359Z" fill="#1B292E"/>
<path d="M629.983 537.359C629.983 554.061 594.99 581.734 542.074 595.252C489.158 608.771 464.407 600.181 414.051 600.181C363.696 600.181 315.047 604.952 263.838 595.252C212.629 585.552 156.299 553.322 156.299 537.359C156.299 509.252 248.54 494.418 387.593 494.418C526.647 494.418 629.983 509.252 629.983 537.359Z" fill="black" fill-opacity="0.2"/>
</g>
<path d="M759.172 301.436C759.172 500.476 594.938 574.164 392.346 574.164C189.753 574.164 25.5195 500.476 25.5195 301.436C25.5195 102.396 189.753 28.709 392.346 28.709C594.938 28.709 759.172 102.396 759.172 301.436Z" fill="#D7DDE0"/>
<path fill-rule="evenodd" clip-rule="evenodd" d="M337.321 8.78821C324.562 18.3576 314.992 43.0785 314.992 65.407C314.992 87.6319 335.534 101.956 392.344 102.089V102.09C392.477 102.09 392.61 102.09 392.743 102.089C392.876 102.09 393.009 102.09 393.142 102.09V102.089C449.953 101.956 470.494 87.6319 470.494 65.407C470.494 43.0785 460.925 18.3576 448.166 8.78821C436.295 -0.114821 413.38 -0.0445169 396.118 0.00844387C394.966 0.0119777 393.84 0.0154343 392.743 0.0161428C391.647 0.0154344 390.52 0.0119777 389.368 0.00844385C372.106 -0.0445169 349.191 -0.114821 337.321 8.78821Z" fill="#D7DDE0"/>
<path fill-rule="evenodd" clip-rule="evenodd" d="M780.538 358.834C774.055 367.478 757.308 373.96 742.182 373.96C727.126 373.96 717.422 360.045 717.332 321.559L717.332 321.559C717.332 321.468 717.332 321.376 717.332 321.285C717.332 321.197 717.332 321.108 717.332 321.019L717.332 321.019C717.422 282.533 727.126 268.617 742.182 268.617C757.308 268.617 774.055 275.1 780.538 283.743C786.569 291.785 786.521 307.308 786.485 319.002C786.483 319.78 786.481 320.541 786.48 321.281C786.481 322.026 786.483 322.792 786.485 323.575C786.521 335.269 786.569 350.792 780.538 358.834Z" fill="#D7DDE0"/>
<path fill-rule="evenodd" clip-rule="evenodd" d="M5.95443 282.314C12.4371 273.671 29.1839 267.188 44.3101 267.188C59.3661 267.188 69.0699 281.104 69.1597 319.59L69.1603 319.59C69.1603 319.681 69.1603 319.772 69.1602 319.863C69.1603 319.952 69.1603 320.041 69.1603 320.13L69.1597 320.13C69.0699 358.616 59.3661 372.531 44.3101 372.531C29.184 372.531 12.4371 366.049 5.95444 357.405C-0.0767981 349.363 -0.0291726 333.84 0.00670448 322.146C0.00909031 321.369 0.0114242 320.608 0.011915 319.867C0.0114466 319.122 0.00909678 318.356 0.00669433 317.573C-0.0291837 305.879 -0.0768107 290.356 5.95443 282.314Z" fill="#D7DDE0"/>
<path d="M598.722 841.262C628.439 778.991 645.933 702.661 645.933 620.191C645.933 593.546 641.854 570.381 634.733 550.24C646.77 550.399 675.272 572.741 675.272 621.212C675.273 669.109 665.996 738.652 598.722 841.262Z" fill="#1C265F"/>
<path d="M151.51 550.356C144.414 570.469 140.351 593.597 140.351 620.191C140.351 703.068 158.018 779.746 188.003 842.185C120.179 739.069 110.846 669.252 110.847 621.212C110.847 572.568 139.554 550.239 151.515 550.239C151.513 550.278 151.512 550.317 151.51 550.356Z" fill="#1C265F"/>
<path d="M334.427 466.932C350.767 463.038 362.99 460.126 392.345 460.126C421.7 460.126 433.924 463.038 450.264 466.932C460.963 469.481 473.427 472.451 493.621 475.299C544.658 482.497 594.49 475.299 641.947 417.085C689.405 358.872 727.274 157.894 392.345 162.698C57.4165 157.894 95.2864 358.872 142.744 417.085C190.201 475.299 240.033 482.497 291.07 475.299C311.264 472.451 323.728 469.481 334.427 466.932Z" fill="#1C265F"/>
<path d="M392.344 866.029C285.486 866.029 237.79 720.512 258.285 673.96C268.542 650.662 330.115 642.743 392.344 642.743C454.573 642.743 516.147 650.662 526.404 673.96C546.899 720.512 499.202 866.029 392.344 866.029Z" fill="#1C265F"/>
<path d="M314.992 65.4063C314.992 54.1125 317.44 42.2067 321.511 31.959C320.766 32.0304 320.022 32.103 319.279 32.1768C311.539 44.0586 302.554 78.8339 316.831 94.8951C332.325 112.325 366.234 117.887 392.866 118.019C419.497 117.887 453.406 112.325 468.9 94.8951C483.133 78.8838 474.247 44.2745 466.525 32.2883C465.686 32.2036 464.847 32.1204 464.007 32.0388C468.059 42.2684 470.494 54.1418 470.494 65.4063C470.494 87.6311 449.953 101.956 393.142 102.089L392.743 102.089C392.671 102.089 392.599 102.089 392.528 102.088L392.455 102.088C392.418 102.088 392.381 102.088 392.344 102.088C335.534 101.955 314.992 87.6311 314.992 65.4063Z" fill="#1C265F"/>
<path d="M751.012 373.27C748.065 373.72 745.094 373.96 742.183 373.96C727.127 373.96 717.423 360.044 717.333 321.558L717.333 321.437C717.333 321.387 717.333 321.338 717.333 321.288L717.333 321.018C717.422 282.532 727.127 268.617 742.183 268.617C747.356 268.617 752.719 269.375 757.796 270.718C757.747 270.193 757.697 269.668 757.646 269.144C745.934 264.928 730.229 262.941 722.374 269.903C710.526 280.405 706.688 303.296 706.544 321.417C706.7 339.524 710.546 362.355 722.373 372.838C728.812 378.546 740.068 378.698 750.231 376.382C750.497 375.349 750.757 374.312 751.012 373.27Z" fill="#1C265F"/>
<path d="M27.1373 268.204C38.8451 263.342 56.09 261.03 64.7079 268.668C76.5495 279.164 80.3903 302.038 80.5378 320.155C80.3856 338.266 76.5419 361.116 64.7081 371.605C57.7954 377.733 44.8034 376.929 33.8028 373.774C33.6132 373.005 33.4267 372.233 33.2433 371.459C36.9149 372.153 40.6591 372.53 44.309 372.53C59.3649 372.53 69.0694 358.615 69.1592 320.129L69.159 319.859C69.159 319.81 69.1589 319.762 69.1588 319.714L69.1585 319.589C69.0687 281.103 59.3649 267.187 44.309 267.187C38.5504 267.187 32.557 268.127 26.9844 269.767C27.0341 269.245 27.0851 268.724 27.1373 268.204Z" fill="#1C265F"/>
</g>
<defs>
<clipPath id="clip0_427_2717">
<rect width="786.49" height="1000" fill="white"/>
</clipPath>
</defs>
</svg>
