<svg width="80" height="80" viewBox="0 0 80 80" fill="none" xmlns="http://www.w3.org/2000/svg">
<path fill-rule="evenodd" clip-rule="evenodd" d="M5.07422 76.2966C5.07422 72.6026 5.41682 67.6537 6.25719 62.2079C21.602 59.489 55.2384 51.53 67.0249 41.4454C69.1362 46.0027 70.7612 50.8428 71.9727 55.5342C62.3222 64.4324 38.0314 73.0834 27.0924 76.2966C18.7407 73.3306 5.07422 76.2966 5.07422 76.2966ZM58.9807 76.2966C68.0917 74.0721 74.9249 76.2966 74.9249 76.2966C74.9249 73.8741 74.7227 70.8233 74.2756 67.3985C68.2895 72.7374 61.5848 75.5551 58.9807 76.2966ZM61.3898 31.8057C43.8805 44.8564 18.3953 52.0738 7.84145 54.0512C11.8232 37.1889 20.7315 19.2 38.4811 19.2C48.4203 19.2 55.8884 24.3981 61.3898 31.8057Z" fill="#6079D2"/>
<path d="M61.3898 31.8057C43.8805 44.8564 18.3953 52.0738 7.84145 54.0512C7.18549 56.8291 6.66323 59.5765 6.25719 62.2079C21.602 59.489 55.2384 51.53 67.0249 41.4454C65.4333 38.0099 63.5654 34.735 61.3898 31.8057Z" fill="#CDD8FF"/>
<path d="M71.9727 55.5342C62.3222 64.4324 38.0314 73.0834 27.0924 76.2966C39.2403 82.2288 58.9807 76.2966 58.9807 76.2966C61.5848 75.5551 68.2895 72.7374 74.2756 67.3985C73.801 63.7638 73.0505 59.7078 71.9727 55.5342Z" fill="#CDD8FF"/>
<path fill-rule="evenodd" clip-rule="evenodd" d="M10.2513 51.6014C21.3433 49.1679 43.2267 42.3938 59.0267 30.9099C53.8866 24.3771 47.184 20.044 38.5 20.044C30.3425 20.044 24.1656 24.2131 19.4777 30.5775C15.1894 36.3994 12.2171 43.9804 10.2513 51.6014ZM60.7878 33.3201C43.8166 45.6498 20.2632 52.6146 9.48215 54.8081C9.10209 56.5175 8.77176 58.2122 8.48712 59.8715C16.0428 58.4276 26.9846 55.9225 37.5544 52.655C43.3479 50.864 49.0065 48.851 53.924 46.6678C58.3714 44.6933 62.1409 42.6106 64.8515 40.4723C63.6488 37.9507 62.2976 35.5417 60.7878 33.3201ZM66.1081 43.2712C63.1787 45.4622 59.3839 47.5053 55.1491 49.3854C50.0883 51.6322 44.3098 53.6849 38.4466 55.4974C27.2511 58.9584 15.662 61.5697 7.99772 62.9941C7.40938 67.1365 7.10973 70.943 7.02537 74.0575C7.17265 74.0318 7.32756 74.0054 7.48966 73.9784C8.91397 73.7408 10.9009 73.4557 13.154 73.2654C17.4421 72.9032 22.9081 72.8634 27.2813 74.3003C32.6625 72.6731 41.0564 69.7799 49.2953 66.2201C57.4355 62.7029 65.2459 58.6091 69.9063 54.5288C68.9141 50.7698 67.6594 46.9429 66.1081 43.2712ZM70.6994 57.7553C65.6047 61.8185 58.0318 65.6923 50.4929 68.9497C43.8333 71.8272 37.0813 74.2729 31.8419 75.9858C36.7456 77.2913 42.3996 77.1945 47.3247 76.6195C50.4437 76.2553 53.1998 75.7085 55.1758 75.2524C56.1628 75.0246 56.9526 74.8201 57.4926 74.6734C57.7626 74.6001 57.97 74.5413 58.1083 74.5013C58.1774 74.4813 58.2292 74.466 58.2629 74.456L58.2998 74.445L58.3078 74.4426L58.3088 74.4422L58.3092 74.4421L58.3194 74.439L58.3301 74.4359C60.6282 73.771 66.6955 71.2037 72.2679 66.3489C71.8995 63.6599 71.3833 60.7548 70.6994 57.7553ZM72.6821 69.8867C70.9675 71.2461 69.2405 72.4115 67.602 73.3927C68.5242 73.4133 69.3768 73.4698 70.1492 73.5465C71.2608 73.6568 72.2085 73.809 72.9619 73.9572C72.9148 72.7169 72.8231 71.3517 72.6821 69.8867ZM74.0256 77.2772L74.0218 77.2759L73.9797 77.2629C73.9391 77.2504 73.8737 77.2309 73.7844 77.2059C73.6058 77.1558 73.3321 77.0837 72.9722 77.0025C72.2519 76.8401 71.1884 76.6416 69.8507 76.5088C67.181 76.2439 63.4346 76.2422 59.1491 77.3003L59.1243 77.3078C59.1 77.315 59.0692 77.3241 59.0321 77.335C59.0069 77.3423 58.9787 77.3505 58.9477 77.3595C58.7945 77.4038 58.5712 77.4671 58.2846 77.545C57.7114 77.7006 56.884 77.9148 55.8553 78.1522C53.8001 78.6265 50.9312 79.1961 47.6752 79.5762C41.2605 80.3251 33.0567 80.3758 26.6598 77.2362C22.8654 75.8915 17.7444 75.8656 13.4084 76.2318C11.2553 76.4136 9.35165 76.6867 7.98689 76.9143C7.30522 77.028 6.75983 77.13 6.38713 77.2032C6.20083 77.2397 6.05781 77.269 5.96264 77.2889L5.85638 77.3114L5.83126 77.3168L5.82589 77.318L5.82539 77.3181L5.82506 77.3182L5.82503 77.3182L4 77.7206V75.865C4 72.0764 4.34504 67.0348 5.18531 61.5018C5.59166 58.8262 6.11454 56.0308 6.77189 53.2021C8.76052 44.6448 12.0033 35.68 17.0557 28.8207C22.1344 21.9258 29.1241 17.0669 38.5 17.0669C48.9428 17.0669 56.7242 22.6454 62.344 30.3342C64.5638 33.3714 66.4576 36.7495 68.0628 40.2702C70.1921 44.9405 71.8243 49.8849 73.0381 54.6611C74.1183 58.9115 74.8705 63.0415 75.3465 66.7453C75.7946 70.2328 75.9999 73.3589 75.9999 75.865V77.9302L74.0285 77.2781L74.0282 77.278L74.0272 77.2777L74.0265 77.2774L74.0256 77.2772Z" fill="#3F3F3F"/>
<path d="M31.4043 0L32.2592 2.07553L33.3612 0.126165L33.9554 2.29512L35.2871 0.502668L35.6114 2.73085L37.1518 1.12357L37.2011 3.37584L38.9259 1.97909L38.6993 4.21993L40.5814 3.05572L40.0825 5.24979L42.0921 4.33649L41.3288 6.44918L43.4343 5.8012L42.4186 7.7992L44.5867 7.42675L43.3348 9.27855L45.5313 9.18751L44.0627 10.8639L46.2531 11.0557L44.591 12.5302L46.7407 13.0019L44.9114 14.2513L46.9864 14.9953L45.0188 16L46.9864 17.0046L44.9114 17.7486L46.7407 18.9981L44.591 19.4697L46.2531 20.9442L44.0627 21.136L45.5313 22.8124L43.3348 22.7214L44.5867 24.5732L42.4186 24.2007L43.4343 26.1987L41.3288 25.5507L42.0921 27.6634L40.0825 26.7501L40.5814 28.9442L38.6993 27.78L38.9259 30.0208L37.2011 28.6241L37.1518 30.8763L35.6114 29.2691L35.2871 31.4973L33.9554 29.7048L33.3612 31.8738L32.2592 29.9244L31.4043 31.9999L30.5495 29.9244L29.4475 31.8738L28.8532 29.7048L27.5216 31.4973L27.1972 29.2691L25.6569 30.8763L25.6076 28.6241L23.8828 30.0208L24.1094 27.78L22.2273 28.9442L22.7262 26.7501L20.7166 27.6634L21.4798 25.5507L19.3744 26.1987L20.39 24.2007L18.2219 24.5732L19.4739 22.7214L17.2774 22.8124L18.746 21.136L16.5556 20.9442L18.2176 19.4697L16.068 18.9981L17.8973 17.7486L15.8223 17.0046L17.7899 16L15.8223 14.9953L17.8973 14.2513L16.068 13.0019L18.2176 12.5302L16.5556 11.0557L18.746 10.8639L17.2774 9.18751L19.4739 9.27855L18.2219 7.42675L20.39 7.7992L19.3744 5.8012L21.4798 6.44918L20.7166 4.33649L22.7262 5.24979L22.2273 3.05572L24.1094 4.21993L23.8828 1.97909L25.6076 3.37584L25.6569 1.12357L27.1972 2.73085L27.5216 0.502668L28.8532 2.29512L29.4475 0.126165L30.5495 2.07553L31.4043 0Z" fill="#CDD8FF"/>
<path fill-rule="evenodd" clip-rule="evenodd" d="M32.2592 2.07553L31.4043 0L30.5495 2.07553L29.4475 0.126165L28.8532 2.29512L27.5216 0.502668L27.1972 2.73085L25.6569 1.12357L25.6076 3.37584L23.8828 1.97909L24.1094 4.21993L22.2273 3.05572L22.7262 5.24979L20.7166 4.33649L21.4798 6.44918L19.3744 5.8012L20.39 7.7992L18.2219 7.42675L19.4739 9.27855L17.2774 9.18751L18.746 10.8639L16.5556 11.0557L18.2176 12.5302L16.068 13.0019L17.8973 14.2513L15.8223 14.9953L17.7899 16L15.8223 17.0046L17.8973 17.7486L16.068 18.9981L18.2176 19.4697L16.5556 20.9442L18.746 21.136L17.2774 22.8124L19.4739 22.7214L18.2219 24.5732L20.39 24.2007L19.3744 26.1987L21.4798 25.5507L20.7166 27.6634L22.7262 26.7501L22.2273 28.9442L24.1094 27.78L23.8828 30.0208L25.6076 28.6241L25.6569 30.8763L27.1972 29.2691L27.5216 31.4973L28.8532 29.7048L29.4475 31.8738L30.5495 29.9244L31.4043 31.9999L32.2592 29.9244L33.3612 31.8738L33.9554 29.7048L35.2871 31.4973L35.6114 29.2691L37.1518 30.8763L37.2011 28.6241L38.9259 30.0208L38.6993 27.78L40.5814 28.9442L40.0825 26.7501L42.0921 27.6634L41.3288 25.5507L43.4343 26.1987L42.4186 24.2007L44.5867 24.5732L43.3348 22.7214L45.5313 22.8124L44.0627 21.136L46.2531 20.9442L44.591 19.4697L46.7407 18.9981L44.9114 17.7486L46.9864 17.0046L45.0188 16L46.9864 14.9953L44.9114 14.2513L46.7407 13.0019L44.591 12.5302L46.2531 11.0557L44.0627 10.8639L45.5313 9.18751L43.3348 9.27855L44.5867 7.42675L42.4186 7.7992L43.4343 5.8012L41.3288 6.44918L42.0921 4.33649L40.0825 5.24979L40.5814 3.05572L38.6993 4.21993L38.9259 1.97909L37.2011 3.37584L37.1518 1.12357L35.6114 2.73085L35.2871 0.502668L33.9554 2.29512L33.3612 0.126165L32.2592 2.07553ZM32.8819 4.01386L33.3306 5.65161L34.3362 4.29815L34.5811 5.98063L35.7442 4.76699L35.7814 6.46765L37.0838 5.41298L36.9127 7.10501L38.3338 6.22593L37.9571 7.88264L39.4745 7.19302L38.8982 8.78829L40.488 8.29901L39.7211 9.80767L41.3582 9.52644L40.4128 10.9247L42.0714 10.856L40.9625 12.1218L42.6164 12.2666L41.3615 13.38L42.9846 13.7361L41.6034 14.6796L43.1702 15.2414L41.6844 16L43.1702 16.7586L41.6034 17.3203L42.9846 18.2638L41.3615 18.6199L42.6164 19.7333L40.9625 19.8781L42.0714 21.144L40.4128 21.0752L41.3582 22.4735L39.7211 22.1923L40.488 23.7009L38.8982 23.2116L39.4745 24.8069L37.9571 24.1173L38.3338 25.774L36.9127 24.8949L37.0838 26.5869L35.7814 25.5323L35.7442 27.2329L34.5811 26.0193L34.3362 27.7018L33.3306 26.3483L32.8819 27.9861L32.0498 26.5141L31.4043 28.0813L30.7588 26.5141L29.9268 27.9861L29.478 26.3483L28.4725 27.7018L28.2276 26.0193L27.0645 27.2329L27.0273 25.5323L25.7249 26.5869L25.896 24.8949L24.4749 25.774L24.8516 24.1173L23.3342 24.8069L23.9105 23.2116L22.3207 23.7009L23.0876 22.1923L21.4505 22.4735L22.3958 21.0752L20.7373 21.144L21.8462 19.8781L20.1922 19.7333L21.4472 18.6199L19.8241 18.2638L21.2053 17.3203L19.6385 16.7586L21.1242 16L19.6385 15.2414L21.2053 14.6796L19.8241 13.7361L21.4472 13.38L20.1922 12.2666L21.8462 12.1218L20.7373 10.856L22.3958 10.9247L21.4505 9.52644L23.0876 9.80767L22.3207 8.29901L23.9105 8.78829L23.3342 7.19302L24.8516 7.88264L24.4749 6.22593L25.896 7.10501L25.7249 5.41298L27.0273 6.46765L27.0645 4.76699L28.2276 5.98062L28.4725 4.29815L29.478 5.65161L29.9268 4.01386L30.7588 5.48579L31.4043 3.91859L32.0498 5.48579L32.8819 4.01386Z" fill="#3F3F3F"/>
</svg>
