<svg width="80" height="80" viewBox="0 0 80 80" fill="none" xmlns="http://www.w3.org/2000/svg">
<path fill-rule="evenodd" clip-rule="evenodd" d="M62.1897 24.3367C63.4285 19.5773 65.2206 14.3089 69.8122 11.7375L73.0154 15.111C72.7527 15.528 72.6177 16.2116 72.9982 17.8135C73.1822 18.5881 73.4532 19.448 73.785 20.4675C73.8252 20.591 73.8662 20.7166 73.9079 20.8442C74.2012 21.7428 74.5271 22.741 74.827 23.793C76.2315 28.7206 77.1413 35.1025 73.1113 42.756L68.8641 40.5197C72.1099 34.3553 71.4239 29.3645 70.2108 25.1087C69.9377 24.1506 69.6417 23.2436 69.3466 22.3392C69.3046 22.2104 69.2626 22.0818 69.2207 21.953C69.0254 21.3529 68.8293 20.7433 68.653 20.1391C67.9627 21.6291 67.3841 23.4357 66.8349 25.5458C66.5409 26.6753 66.2659 27.84 65.9812 29.0459L65.9469 29.1915C65.6523 30.439 65.3469 31.7273 65.0102 33.0036C64.3394 35.5458 63.5163 38.1534 62.3077 40.514L58.0352 38.3264C59.0101 36.4222 59.7293 34.2035 60.369 31.779C60.6875 30.5719 60.9794 29.3418 61.2753 28.0885C61.2882 28.0338 61.3011 27.9791 61.3141 27.9244C61.5951 26.7338 61.8815 25.5206 62.1897 24.3367Z" fill="#843232"/>
<path fill-rule="evenodd" clip-rule="evenodd" d="M80 14.4559C72.2507 12.2363 68.665 5.79374 68.665 5.79374C54.1267 8.24899 23.9581 23.7794 19.5905 66.2591C26.6925 80.3844 56.4103 72.863 56.4103 72.863C41.5965 36.6875 60.2067 26.0939 72.1234 19.3103C72.8577 18.8923 73.5666 18.4888 74.2407 18.0947C76.6028 16.7135 78.5899 15.5515 80 14.4559Z" fill="#DE4A4A"/>
<path d="M68.665 5.79374C44.5584 1.524 16.3145 17.5981 0 67.2782C11.1225 58.0696 17.6947 62.7619 19.5905 66.2591C23.9581 23.7794 54.1267 8.24899 68.665 5.79374Z" fill="#C93E3E"/>
</svg>
