<svg width="80" height="80" viewBox="0 0 80 80" fill="none" xmlns="http://www.w3.org/2000/svg">
<path d="M31.7382 60.9443C34.069 60.389 35.8125 59.9736 39.9999 59.9736C44.1874 59.9736 45.931 60.389 48.2618 60.9443C49.788 61.308 51.566 61.7316 54.4467 62.1379C61.7269 63.1647 68.8351 62.1378 75.6048 53.834C82.3744 45.5301 87.7763 16.8613 39.9999 17.5465C-7.77639 16.8613 -2.37438 45.5301 4.39526 53.834C11.1649 62.1378 18.2732 63.1647 25.5534 62.1379C28.4341 61.7316 30.212 61.308 31.7382 60.9443Z" fill="#1C265F"/>
<path d="M63.8903 43.755C63.8903 45.0964 60.6322 41.3892 56.6131 41.3892C52.5941 41.3892 49.3359 45.6668 49.3359 43.755C49.3359 41.8433 52.5941 37.7532 56.6131 37.7532C60.6322 37.7532 63.8903 42.4136 63.8903 43.755Z" fill="#04ABDF"/>
<path d="M16.1116 43.755C16.1116 45.0964 19.3697 41.3892 23.3888 41.3892C27.4079 41.3892 30.666 45.6668 30.666 43.755C30.666 41.8433 27.4079 37.7532 23.3888 37.7532C19.3697 37.7532 16.1116 42.4136 16.1116 43.755Z" fill="#04ABDF"/>
</svg>
