<svg width="80" height="80" viewBox="0 0 80 80" fill="none" xmlns="http://www.w3.org/2000/svg">
<path d="M31.7382 60.9443C34.069 60.389 35.8125 59.9736 39.9999 59.9736C44.1874 59.9736 45.931 60.389 48.2618 60.9443C49.788 61.308 51.566 61.7316 54.4467 62.1379C61.7269 63.1647 68.8351 62.1378 75.6048 53.834C82.3744 45.5301 87.7763 16.8613 39.9999 17.5465C-7.77639 16.8613 -2.37438 45.5301 4.39526 53.834C11.1649 62.1378 18.2732 63.1647 25.5534 62.1379C28.4341 61.7316 30.212 61.308 31.7382 60.9443Z" fill="#1C265F"/>
<path d="M30.4452 43.7071C30.4452 47.7279 27.1857 49.3948 23.165 49.3948C19.1442 49.3948 15.8848 47.7279 15.8848 43.7071C15.8848 39.6864 19.1442 35.9719 23.165 35.9719C27.1857 35.9719 30.4452 39.6864 30.4452 43.7071Z" fill="#04ABDF"/>
<path d="M63.66 43.7071C63.66 47.7279 60.4006 49.3948 56.3798 49.3948C52.3591 49.3948 49.0996 47.7279 49.0996 43.7071C49.0996 39.6864 52.3591 35.9719 56.3798 35.9719C60.4006 35.9719 63.66 39.6864 63.66 43.7071Z" fill="#04ABDF"/>
</svg>
