<svg width="80" height="80" viewBox="0 0 80 80" fill="none" xmlns="http://www.w3.org/2000/svg">
<path d="M31.7382 60.9443C34.069 60.389 35.8125 59.9736 39.9999 59.9736C44.1874 59.9736 45.931 60.389 48.2618 60.9443C49.788 61.308 51.566 61.7316 54.4467 62.1379C61.7269 63.1647 68.8351 62.1378 75.6048 53.834C82.3744 45.5301 87.7763 16.8613 39.9999 17.5465C-7.77639 16.8613 -2.37438 45.5301 4.39526 53.834C11.1649 62.1378 18.2732 63.1647 25.5534 62.1379C28.4341 61.7316 30.212 61.308 31.7382 60.9443Z" fill="#1C265F"/>
<path d="M30.5615 43.7358C30.5615 44.3646 27.3018 40.4415 23.2808 40.4415C19.2597 40.4415 16 44.3646 16 43.7358C16 43.107 19.2597 38.9436 23.2808 38.9436C27.3018 38.9436 30.5615 43.107 30.5615 43.7358Z" fill="#04ABDF"/>
<path d="M63.7802 43.7358C63.7802 47.7568 60.5205 49.4239 56.4995 49.4239C52.4785 49.4239 49.2188 47.7568 49.2188 43.7358C49.2188 39.7147 52.4785 36 56.4995 36C60.5205 36 63.7802 39.7147 63.7802 43.7358Z" fill="#04ABDF"/>
</svg>
