<svg width="80" height="80" viewBox="0 0 80 80" fill="none" xmlns="http://www.w3.org/2000/svg">
<g clip-path="url(#clip0_450_3727)">
<path d="M-0.220703 38.2539C4.98765 62.9056 60.6211 69.7061 64.0247 49.7555C16.0722 54.4351 21.0751 48.9149 -0.220703 38.2539Z" fill="black" fill-opacity="0.2"/>
<path d="M76.6927 52.5366C75.4205 60.1998 57.0562 65.8245 36.1315 62.3506C15.2067 58.8767 -0.354762 47.6196 0.917471 39.9565C2.1897 32.2933 20.1839 28.8973 41.1087 32.3712C62.0334 35.8451 77.9649 44.8735 76.6927 52.5366Z" fill="#735642"/>
<path d="M67.1971 45.863C66.1951 51.8982 53.0397 54.7415 37.8137 52.2137C22.5876 49.6859 11.0567 42.7441 12.0587 36.7089C13.0607 30.6737 26.2161 27.8304 41.4421 30.3582C56.6682 32.886 68.1991 39.8277 67.1971 45.863Z" fill="black" fill-opacity="0.2"/>
<path d="M65.3888 42.9031C65.3888 42.9031 67.3229 26.6729 61.5893 21.2919C58.1588 18.0724 55.1248 18.6727 51.5122 19.3875C49.0868 19.8674 46.4005 20.3989 43.1584 19.8606C39.9163 19.3224 37.5459 17.9514 35.4057 16.7135C32.2178 14.8697 29.5406 13.3212 25.2538 15.2595C18.0891 18.4991 14.6748 34.4836 14.6748 34.4836L65.3888 42.9031Z" fill="#735642"/>
<path d="M65.5709 42.9333C64.6349 48.5715 52.4539 51.2458 38.3638 48.9066C24.2738 46.5674 13.6104 40.1004 14.5465 34.4623C15.4825 28.8241 27.6635 26.1498 41.7536 28.489C55.8436 30.8282 66.507 37.2952 65.5709 42.9333Z" fill="#735642"/>
</g>
<defs>
<clipPath id="clip0_450_3727">
<rect width="80" height="80" fill="white"/>
</clipPath>
</defs>
</svg>
