<svg width="80" height="80" viewBox="0 0 80 80" fill="none" xmlns="http://www.w3.org/2000/svg">
<path fill-rule="evenodd" clip-rule="evenodd" d="M60.6939 45.5542C59.0701 45.5301 55.4802 45.6604 54.1109 46.3739C45.8724 53.2793 46.1211 65.8785 46.2633 73.0812C46.3065 75.2723 46.3399 76.964 46.1216 77.8442C46.0756 78.0294 46.0185 78.1786 45.948 78.2891C44.2365 80.9705 51.7533 78.0494 52.531 77.6791C54.5211 76.7314 56.4472 72.4443 57.6765 69.7082L57.6788 69.703C57.815 69.4 57.9425 69.1161 58.0607 68.8579C58.4959 67.6163 59.3145 65.0677 59.6406 63.8548C61.9979 55.0868 61.2336 48.6384 60.6939 45.5542ZM24.4876 46.6878C21.7491 45.6988 19.7478 45.6078 19.0895 45.6859C18.2162 48.4044 17.1798 55.0744 19.006 62.2749C19.2775 63.3455 19.6124 64.4279 20.0204 65.5107C20.1812 65.9374 20.2894 65.8474 20.6257 66.7359C20.7125 66.9652 20.8138 67.2329 20.933 67.5413C22.7237 72.1757 25.4092 76.3186 26.5941 77.8107C27.2663 77.851 28.5133 78.2852 29.8667 78.7565C33.0054 79.8494 36.7159 81.1415 35.152 78.1791C35.0694 78.0227 34.9912 77.8408 34.9167 77.6353C34.4634 76.3859 34.1418 74.2616 33.7452 71.6416C32.6553 64.4427 30.999 53.5018 24.4876 46.6878Z" fill="#2D6719"/>
<path d="M39.7602 0C4.68468 -1.67627e-05 -6.84727 33.9681 19.0895 45.6859C19.7478 45.6078 21.7491 45.6988 24.4876 46.6878C23.1972 45.3375 21.7162 44.1492 20.0111 43.1843C-3.95086 29.6234 9.63662 1.84323 39.7602 1.84323C77.4146 1.84323 77.8096 36.338 59.6406 43.1843C57.7729 44.2606 55.8331 44.9303 54.1109 46.3739C55.4802 45.6604 59.0701 45.5301 60.6939 45.5542C86.2358 35.4164 76.6246 1.76177e-05 39.7602 0Z" fill="#308014"/>
<path fill-rule="evenodd" clip-rule="evenodd" d="M12.1144 64.664C7.85804 57.1558 8.04602 44.5355 19.0895 45.6859C18.2162 48.4044 17.1798 55.0744 19.006 62.2749C18.2566 63.1502 14.3846 64.1677 12.1144 64.664Z" fill="#308014"/>
<path d="M20.6257 66.7359C20.2894 65.8474 20.1812 65.9374 20.0204 65.5107C19.6124 64.4279 19.2775 63.3455 19.006 62.2749C18.2566 63.1502 14.3846 64.1677 12.1144 64.664C11.926 64.7052 11.5849 65.4347 12.3749 66.883C13.1649 68.3312 14.3785 68.9978 14.8764 68.7262C16.3247 67.9362 18.8262 68.4629 20.6257 66.7359Z" fill="#265A14"/>
<path fill-rule="evenodd" clip-rule="evenodd" d="M60.6939 45.5542C64.7753 43.9743 70.0417 48.8456 70.0417 54.902C70.0417 59.2621 69.3559 62.3364 66.7502 65.5664C65.0057 64.6428 61.7063 63.5054 59.6406 63.8548C61.9979 55.0868 61.2336 48.6384 60.6939 45.5542Z" fill="#308014"/>
<path d="M58.0607 68.8579C58.0607 68.8579 62.1422 68.9895 63.3271 69.5162C64.512 70.0429 64.0611 69.703 65.0387 68.7262C66.0162 67.7494 67.3396 65.8784 66.7502 65.5664C65.0057 64.6428 61.7063 63.5054 59.6406 63.8548C59.3145 65.0677 58.4959 67.6163 58.0607 68.8579Z" fill="#265A14"/>
<path d="M39.7602 1.84323C9.63662 1.84323 -3.95086 29.6234 20.0111 43.1843C33.3108 48.1262 46.597 48.0992 59.6406 43.1843C77.8096 36.338 77.4146 1.84323 39.7602 1.84323Z" fill="#394B32"/>
<path d="M33.7452 71.6416C34.1418 74.2616 34.4634 76.3859 34.9167 77.6353L35.152 78.1791C35.152 78.1791 37 78.2705 40 77.6353C43 77 45.948 78.2891 45.948 78.2891L46.1216 77.8442C46.3399 76.964 46.3065 75.2723 46.2633 73.0812C46.1211 65.8785 45.8724 53.2793 54.1109 46.3739C55.8331 44.9303 57.7729 44.2606 59.6406 43.1843C46.597 48.0992 33.3108 48.1262 20.0111 43.1843C21.7162 44.1492 23.1972 45.3375 24.4876 46.6878C30.999 53.5018 32.6553 64.4427 33.7452 71.6416Z" fill="#394B32"/>
</svg>
