<svg width="80" height="80" viewBox="0 0 80 80" fill="none" xmlns="http://www.w3.org/2000/svg">
<g clip-path="url(#clip0_450_3724)">
<rect x="12.0059" y="15.7993" width="6.78032" height="75.8193" transform="rotate(-45 12.0059 15.7993)" fill="#565656"/>
<path fill-rule="evenodd" clip-rule="evenodd" d="M40 72C57.6731 72 72 57.6731 72 40C72 22.3269 57.6731 8 40 8C22.3269 8 8 22.3269 8 40C8 57.6731 22.3269 72 40 72ZM40 80C62.0914 80 80 62.0914 80 40C80 17.9086 62.0914 0 40 0C17.9086 0 0 17.9086 0 40C0 62.0914 17.9086 80 40 80Z" fill="#9E9E9E"/>
</g>
<defs>
<clipPath id="clip0_450_3724">
<rect width="80" height="80" fill="white"/>
</clipPath>
</defs>
</svg>
