<svg width="80" height="80" viewBox="0 0 80 80" fill="none" xmlns="http://www.w3.org/2000/svg">
<g clip-path="url(#clip0_450_3726)">
<path fill-rule="evenodd" clip-rule="evenodd" d="M15.4336 48.3757C24.1002 33.3757 48.7667 10.0013 61.9668 26.0012C63.0422 27.3048 64.3125 29.5 64.5 31C53.7 18.2536 33.5 32 27.1033 46.933C22.9419 47.6042 18.9292 48.0794 15.4336 48.3757Z" fill="#641278"/>
<path d="M27.1033 46.933C36.4215 33.6499 53.8525 24.6132 64.5 31C53.7 18.2536 33.5 32 27.1033 46.933Z" fill="#641278"/>
<path d="M27.1033 46.933C36.4215 33.6499 53.8525 24.6132 64.5 31C53.7 18.2536 33.5 32 27.1033 46.933Z" fill="black" fill-opacity="0.2"/>
<mask id="mask0_450_3726" style="mask-type:alpha" maskUnits="userSpaceOnUse" x="15" y="23" width="50" height="37">
<path d="M57.8437 23.7704C50.5035 34.6314 15.3774 48.4099 15.3774 48.4099C15.3774 48.4099 15.1388 53.4694 19.4482 59.6705C28.2612 59.9902 62.0784 37.6302 64.2589 30.8824C64.2589 30.8824 61.2999 25.9676 57.8437 23.7704Z" fill="#902AA9"/>
</mask>
<g mask="url(#mask0_450_3726)">
<path d="M57.8437 23.7704C50.5035 34.6314 15.3774 48.4099 15.3774 48.4099C15.3774 48.4099 15.1388 53.4694 19.4482 59.6705C28.2612 59.9902 62.0784 37.6302 64.2589 30.8824C64.2589 30.8824 61.2999 25.9676 57.8437 23.7704Z" fill="#902AA9"/>
<path fill-rule="evenodd" clip-rule="evenodd" d="M50.2873 30.0951C49.7575 29.7874 49.1321 29.3496 48.7458 28.7429L51.5865 26.9339C51.5719 26.9109 51.5632 26.8995 51.564 26.8988C51.5667 26.8964 51.6657 27.001 51.9785 27.1826C52.3389 27.3919 52.851 27.628 53.5037 27.8681C54.805 28.3467 56.529 28.7916 58.4135 29.0766C62.287 29.6625 66.3372 29.5001 68.7824 28.0884L70.4663 31.005C66.9871 33.0137 61.959 33.019 57.9098 32.4066C55.833 32.0924 53.8846 31.5966 52.3411 31.0289C51.5715 30.7458 50.8681 30.4323 50.2873 30.0951ZM15.6029 48.6362C15.5649 48.5844 15.5307 48.5378 15.5003 48.4968L18.209 46.4954C18.2388 46.5358 18.2718 46.5806 18.3078 46.6296C18.9467 47.4988 20.5637 49.6984 22.9362 51.7865C25.4605 54.0081 28.6689 55.9498 32.2867 56.1641L32.0876 59.526C27.4008 59.2485 23.499 56.7682 20.7111 54.3146C18.0589 51.9803 16.2601 49.531 15.6029 48.6362ZM29.3813 42.6614C28.847 42.1584 28.3407 41.6056 28.0199 41.0499L30.9365 39.366C31.0104 39.4939 31.233 39.7792 31.6898 40.2093C32.1237 40.6177 32.695 41.0885 33.3783 41.5917C34.7446 42.5981 36.4883 43.683 38.3233 44.6078C40.1673 45.5372 42.0377 46.2716 43.6656 46.6236C45.3628 46.9906 46.461 46.8697 47.0446 46.5327L48.7285 49.4494C47.0334 50.428 44.8886 50.3337 42.9538 49.9153C40.9495 49.4819 38.7986 48.6187 36.8075 47.6153C34.8074 46.6072 32.9022 45.4239 31.381 44.3034C30.6205 43.7433 29.9385 43.186 29.3813 42.6614ZM38.3027 40.1277C36.8985 39.1693 35.6601 38.0754 35.038 36.9979L37.9547 35.314C38.1877 35.7177 38.9075 36.463 40.2012 37.3459C41.4399 38.1913 43.0449 39.0545 44.8394 39.755C48.4842 41.178 52.5984 41.8135 55.921 40.652L57.0323 43.8312C52.6193 45.3738 47.5985 44.4476 43.6146 42.8923C41.5947 42.1037 39.762 41.1236 38.3027 40.1277ZM43.8902 34.4232C43.3005 33.9505 42.7403 33.3944 42.3752 32.7618L45.2918 31.0779C45.3608 31.1974 45.5621 31.4472 45.9966 31.7954C46.4129 32.1291 46.9689 32.4943 47.6492 32.8663C49.0095 33.6103 50.7681 34.3279 52.6734 34.8566C54.5799 35.3857 56.5776 35.7101 58.4205 35.7058C60.2765 35.7014 61.8631 35.3645 63.0484 34.6801L64.7323 37.5968C62.8642 38.6753 60.6342 39.0684 58.4284 39.0736C56.2094 39.0788 53.9002 38.6922 51.7728 38.1018C49.6443 37.5111 47.6422 36.7011 46.0332 35.8212C45.2289 35.3813 44.498 34.9105 43.8902 34.4232ZM24.5761 47.8193C23.4295 46.749 22.4939 45.6865 22.0255 44.8753L24.9421 43.1914C25.1579 43.5651 25.8011 44.3557 26.8741 45.3573C27.9136 46.3276 29.2618 47.4075 30.7907 48.3772C33.9131 50.3574 37.4859 51.6891 40.6461 51.1347L41.228 54.4519C36.8292 55.2235 32.3595 53.3601 28.987 51.2213C27.2686 50.1314 25.7562 48.9209 24.5761 47.8193Z" fill="#641278"/>
</g>
<path d="M53.0801 41.832C50.8644 36.7312 50.1595 30.8796 54.9267 27.0335C54.9267 27.0335 52.8074 33.3611 53.0801 41.832Z" fill="black" fill-opacity="0.2"/>
<mask id="mask1_450_3726" style="mask-type:alpha" maskUnits="userSpaceOnUse" x="52" y="23" width="17" height="29">
<path d="M68.5542 51.7953C60.3978 37.6679 63.9603 37.3272 64.5 31C64.5 31 62.733 27.0837 57.9074 23.6719C51.3957 28.3064 51.0164 41.6259 56.0945 50.4214C63.0361 48.2365 68.5542 51.7953 68.5542 51.7953Z" fill="#902AA9"/>
</mask>
<g mask="url(#mask1_450_3726)">
<path d="M68.5542 51.7953C60.3978 37.6679 63.9603 37.3272 64.5 31C64.5 31 62.733 27.0837 57.9074 23.6719C51.3957 28.3064 51.0164 41.6259 56.0945 50.4214C63.0361 48.2365 68.5542 51.7953 68.5542 51.7953Z" fill="#641278"/>
<path fill-rule="evenodd" clip-rule="evenodd" d="M54.2901 31.9284C52.7984 32.0601 51.2889 31.9579 50.119 31.4347L51.4939 28.3603C51.9093 28.5461 52.7548 28.683 53.9938 28.5736C55.1876 28.4682 56.5838 28.1478 57.9894 27.596C60.8375 26.4779 63.4508 24.5256 64.6469 21.8508L67.7213 23.2257C66.0388 26.988 62.5485 29.4242 59.2201 30.7309C57.5373 31.3915 55.8271 31.7926 54.2901 31.9284ZM57.3688 24.2144C56.7592 24.276 55.996 24.2881 55.3272 24.0232L56.5673 20.892C56.542 20.882 56.5283 20.8779 56.5285 20.8768C56.5292 20.8733 56.6708 20.9 57.0307 20.8636C57.4454 20.8218 57.9986 20.7127 58.6681 20.5244C60.0028 20.1489 61.6601 19.4982 63.3537 18.624C66.8347 16.8269 70.0202 14.3201 71.1728 11.7427L74.2472 13.1176C72.6071 16.785 68.5375 19.738 64.8986 21.6165C63.0321 22.5801 61.1631 23.3211 59.58 23.7664C58.7906 23.9884 58.037 24.147 57.3688 24.2144ZM40.1482 59.5731C40.0871 59.5534 40.032 59.5358 39.9834 59.5203L41.0037 56.3107C41.0515 56.3259 41.1045 56.3429 41.1625 56.3615C42.1897 56.6908 44.7894 57.5242 47.9356 57.8242C51.2831 58.1434 55.0206 57.8346 58.0766 55.8864L59.8869 58.7263C55.9279 61.2501 51.3129 61.5293 47.6159 61.1768C44.0987 60.8415 41.2053 59.9125 40.1482 59.5731ZM53.8262 38.4491C52.2432 38.4841 50.7193 38.3054 49.6057 37.8074L50.9806 34.733C51.4281 34.9331 52.3693 35.1127 53.7517 35.0821C55.0868 35.0526 56.68 34.8304 58.3327 34.3679C61.6669 33.4349 65.0232 31.5905 67.0656 28.6549L69.8302 30.5783C67.1926 34.3694 63.0327 36.55 59.2402 37.6112C57.3295 38.1458 55.4566 38.413 53.8262 38.4491ZM57.5243 45.4149C53.265 45.4984 49.378 44.2774 47.758 43.5529L49.1329 40.4785C50.3952 41.043 53.7895 42.1197 57.4582 42.0477C61.088 41.9764 64.7338 40.803 67.0598 37.1775L69.8944 38.9961C66.7515 43.895 61.8226 45.3305 57.5243 45.4149ZM56.3041 52.0185C54.3261 51.5851 52.6619 51.0534 51.8889 50.7077L53.2638 47.6333C53.7397 47.8462 55.1541 48.3188 57.0249 48.7287C58.8766 49.1344 61.0449 49.4493 63.03 49.4103C65.0718 49.3701 66.6183 48.9601 67.5201 48.2139C68.2677 47.5952 68.8753 46.4873 68.4235 44.1215L71.7316 43.4899C72.3458 46.7065 71.6109 49.2001 69.6672 50.8085C67.8777 52.2894 65.384 52.7324 63.0963 52.7774C60.7518 52.8236 58.3012 52.4561 56.3041 52.0185Z" fill="#641278"/>
</g>
</g>
<defs>
<clipPath id="clip0_450_3726">
<rect width="80" height="80" fill="white"/>
</clipPath>
</defs>
</svg>
