<svg width="80" height="80" viewBox="0 0 80 80" fill="none" xmlns="http://www.w3.org/2000/svg">
<path d="M13.6038 17.0938C13.6038 17.0938 29.7008 27.0668 39.8488 27.0668C49.9969 27.0668 65.9188 17.0938 65.9188 17.0938L66.4437 18.8434C66.4437 18.8434 51.7466 29.1664 39.8488 29.1664C27.9511 29.1664 13.2539 18.8434 13.2539 18.8434L13.6038 17.0938Z" fill="#AF1919"/>
<path d="M12.7289 19.3683C3.10559 16.2189 -6.65969 28.2231 6.08008 47.5379C9.75439 44.0386 10.4543 47.5379 13.9537 44.3885C11.8541 38.9062 8.80968 25.3872 12.7289 19.3683Z" fill="#535353"/>
<path fill-rule="evenodd" clip-rule="evenodd" d="M12.7289 19.3683L13.6038 17.0938C13.6038 17.0938 27.778 26.7839 36.6992 28.6415C37.6401 28.8375 38.5225 28.9915 39.3237 28.9915C47.7221 28.9915 65.9187 17.0938 65.9187 17.0938L66.9685 19.3683C69.9429 26.5419 68.718 38.7896 66.2686 45.0884C62.4193 54.1867 60.1448 58.3859 57.1704 61.1853C54.5906 63.6135 26.7262 63.8098 22.3521 61.1853C18.8527 59.0857 15.2951 49.1126 13.9537 44.3885C11.8541 38.9062 8.80968 25.3872 12.7289 19.3683Z" fill="#3B3B3B"/>
<path d="M66.2686 45.0884C69.7678 43.8636 71.1677 44.7385 73.9672 47.5379C83.5903 37.9148 82.0156 16.044 66.9685 19.3683C69.9429 26.5419 68.718 38.7896 66.2686 45.0884Z" fill="#535353"/>
<circle cx="39.8493" cy="35.2904" r="1.74967" fill="#444444"/>
<circle cx="39.8493" cy="42.289" r="1.74967" fill="#444444"/>
<circle cx="39.8493" cy="49.2878" r="1.74967" fill="#535353"/>
<circle cx="39.8493" cy="56.2865" r="1.74967" fill="#535353"/>
<circle cx="9.75488" cy="41.9392" r="1.0498" fill="#3B3B3B"/>
<circle cx="9.75488" cy="41.9392" r="1.0498" fill="#3B3B3B"/>
<circle cx="70.6435" cy="41.9392" r="1.0498" fill="#3B3B3B"/>
<circle cx="70.6435" cy="41.9392" r="1.0498" fill="#3B3B3B"/>
<path fill-rule="evenodd" clip-rule="evenodd" d="M12.9043 18.3187C22.7024 26.1922 28.8262 27.8201 32.1506 33.769C32.1506 33.769 33.7253 30.9163 34.4252 28.9916C35.1251 27.242 35.8249 23.2177 35.8249 23.2177C33.0351 22.7739 29.6744 21.7347 26.8427 20.9932C22.5497 19.8692 18.7693 19.0185 13.4292 16.9189C13.2542 17.0939 12.9043 17.7937 12.9043 18.3187Z" fill="#535353"/>
<path d="M36.5248 30.3914C36.5248 30.3914 36.6998 29.1666 36.5248 27.067C36.3498 24.9674 35.8249 23.2177 35.8249 23.2177C35.8249 23.2177 35.1251 27.242 34.4252 28.9916C34.4252 28.9916 35.3 30.2164 36.5248 30.3914Z" fill="#2E2E2E"/>
<path fill-rule="evenodd" clip-rule="evenodd" d="M66.6182 18.4935C56.82 26.367 50.7742 27.82 47.4498 33.7688C47.4498 33.7688 45.8751 30.9161 45.1752 28.9915C44.4753 27.2418 43.7755 23.2176 43.7755 23.2176C46.5652 22.7737 49.9259 21.7346 52.7577 20.9931C57.0506 19.869 60.5782 19.1933 65.9183 17.0938C66.2682 17.0938 66.6182 17.9686 66.6182 18.4935Z" fill="#535353"/>
<path d="M43.0756 30.3912C43.0756 30.3912 42.9006 29.1664 43.0756 27.0668C43.2506 24.9672 43.7755 23.2176 43.7755 23.2176C43.7755 23.2176 44.4753 27.2418 45.1752 28.9915C45.1752 28.9915 44.3004 30.2162 43.0756 30.3912Z" fill="#2E2E2E"/>
<path d="M40.0227 29.5165C40.0227 29.5165 40.3727 28.5087 40.7226 28.4666C41.0726 28.4246 42.6472 28.2917 42.6472 28.2917L44.2554 41.0427L42.1398 43.7916L39.4326 41.6229L40.0227 29.5165Z" fill="#AE4444"/>
<path d="M37.2238 28.2917C38.8025 28.3045 40.2065 28.4706 41.7729 28.2917C41.7972 34.068 41.8312 39.4896 41.7209 45.2648L39.3849 48.5879L37.0488 45.2648L37.2238 28.2917Z" fill="#E14343"/>
</svg>
