<svg width="512" height="327" viewBox="0 0 512 327" fill="none" xmlns="http://www.w3.org/2000/svg">
<g clip-path="url(#clip0_386_2621)">
<path d="M408.497 248.134C421.629 248.134 432.275 237.493 432.275 224.367C432.275 211.241 421.629 200.6 408.497 200.6C395.365 200.6 384.719 211.241 384.719 224.367C384.719 237.493 395.365 248.134 408.497 248.134Z" fill="#FEAA4E"/>
<path d="M101.243 248.134C114.375 248.134 125.021 237.493 125.021 224.367C125.021 211.241 114.375 200.6 101.243 200.6C88.1106 200.6 77.4648 211.241 77.4648 224.367C77.4648 237.493 88.1106 248.134 101.243 248.134Z" fill="#FEAA4E"/>
<path d="M202.46 246.633C192.1 293.901 149.624 327.067 100.366 326.389C52.5701 325.671 10.7989 290.658 1.86219 243.974C1.44993 241.834 1.95528 239.322 0.0136719 237.58V210.583C2.19466 207.353 1.95528 203.445 2.833 199.856C17.2754 140.53 81.2953 106.607 138.227 128.248C138.522 128.397 138.799 128.58 139.052 128.793C134.53 137.792 129.437 146.485 124.157 155.059C117.943 153.229 111.531 152.149 105.06 151.842C93.9402 151.44 82.877 153.604 72.7295 158.168C62.582 162.731 53.6232 169.571 46.5485 178.156C39.4738 186.74 34.4737 196.839 31.9362 207.668C29.3988 218.498 29.3923 229.766 31.9173 240.598C38.8459 271.516 67.6775 295.51 98.9427 296.427C133.36 297.384 163.162 276.235 171.966 244.585L202.46 246.633Z" fill="#2C2C2C"/>
<path d="M202.46 246.632L171.953 244.585C169.493 244.266 167.046 243.814 164.572 243.642C144.212 242.179 123.838 240.863 103.478 239.308C89.7003 238.245 83.7292 227.225 90.3387 215.381C94.5278 207.844 98.9163 200.427 103.092 192.89C110.061 180.289 117.721 168.086 124.157 155.152C129.477 146.578 134.53 137.872 139.052 128.886C147.217 116.444 153.228 102.673 161.66 90.4965C168.482 80.6865 169.014 72.0463 163.428 61.5717C158.322 52.0142 154.93 41.5263 150.781 31.4504L183.629 32.3145C187.339 41.513 191.156 50.6849 194.707 59.9499C195.771 62.7015 197.486 63.0604 200.026 63.0471C216.45 63.0471 232.887 63.0471 249.311 63.1668C249.311 73.0388 249.311 82.9153 249.311 92.7962H208.338C213.658 106.355 218.551 118.996 223.538 131.611C232.129 153.296 240.738 174.972 249.365 196.639C249.365 219.165 249.365 241.701 249.365 264.245C249.365 266 249.95 267.914 248.58 269.562C246.16 263.793 243.699 258.037 241.359 252.282C240.627 250.461 239.763 249.224 237.555 249.092C225.839 248.201 214.11 247.403 202.46 246.632ZM204.561 216.325L227.408 218.266C212.78 182.588 198.444 147.589 183.629 111.446L165.729 143.8L150.595 170.386C142.895 183.678 135.182 196.851 127.016 210.875C132.801 211.287 137.655 211.659 142.616 211.965L174.32 214.012L204.561 216.325Z" fill="#F44F66"/>
<path d="M383.827 124.951C419.88 116.683 452.023 124.765 478.594 150.207C508.37 178.747 517.958 214.212 506.242 253.624C494.712 292.412 467.609 316.525 427.939 324.873C368.414 337.395 310.112 293.037 306.176 232.622C303.516 191.189 320.419 159.339 355.102 136.742C359.517 145.918 363.468 155.31 366.938 164.882C353.324 174.257 343.336 188.013 338.64 203.858C333.945 219.702 334.825 236.676 341.135 251.95C347.444 267.224 358.802 279.874 373.313 287.791C387.824 295.708 404.612 298.414 420.877 295.456C450.507 289.887 470.083 272.035 477.969 243.057C485.748 214.424 477.65 189.474 455.534 169.748C438.432 154.461 417.938 149.463 395.344 152.946C391.023 143.82 387.179 134.476 383.827 124.951Z" fill="#2C2C2C"/>
<path d="M383.827 124.951C387.181 134.449 391.025 143.766 395.344 152.866C396.075 154.873 396.74 156.92 397.551 158.901C405.624 178.401 413.776 197.862 421.782 217.389C425.771 227.066 421.276 236.344 411.648 238.949C404.44 240.903 397.299 237.035 393.921 229.06C384.864 207.658 375.928 186.217 366.938 164.789C363.467 155.217 359.517 145.825 355.102 136.649C352.322 127.503 347.961 119.036 344.263 109.412C342.934 111.207 341.963 112.416 341.098 113.706C316.327 150.925 291.539 188.122 266.732 225.298C265.056 227.81 264.564 229.804 265.868 232.835C271.32 245.569 276.387 258.476 281.587 271.317L249.497 271.742C249.178 270.945 248.859 270.147 248.553 269.35C249.883 267.768 249.337 265.854 249.337 264.033C249.337 241.506 249.337 218.97 249.337 196.426C272.052 162.379 294.757 128.336 317.453 94.2983C317.629 93.8257 317.723 93.3269 317.733 92.8228H309.607L249.324 92.5835C249.324 82.7115 249.324 72.835 249.324 62.9541C266.745 62.8478 284.171 62.7459 301.601 62.6484C307.572 62.6484 313.57 62.3693 319.528 62.6484C324.448 62.9408 324.568 61.3191 322.839 57.4111C319.169 49.1829 315.871 40.5294 312.4 31.9822L345.155 32.1949L382.843 123.263C383.128 123.85 383.457 124.414 383.827 124.951Z" fill="#F44F66"/>
<path d="M345.154 32.1948L312.399 31.9821C311.162 29.0843 309.845 26.2264 308.702 23.302C304.393 12.2292 311.042 2.17991 323.024 2.03369C336.642 1.8343 350.274 2.03369 363.891 2.03369C378.68 2.03369 393.468 1.79442 408.256 2.11344C430.345 2.57869 446.822 19.1414 446.982 40.5426C447.141 61.9438 430.491 79.0914 408.415 79.8092C405.103 80.0189 401.778 79.8808 398.495 79.3971C394.905 78.7979 391.658 76.9078 389.364 74.0826C387.071 71.2573 385.891 67.6917 386.044 64.0568C386.198 60.422 387.675 56.9687 390.199 54.3468C392.722 51.7249 396.117 50.1153 399.745 49.8209C402.537 49.5285 405.383 49.8209 408.203 49.555C413.655 49.1695 417.073 45.6869 417.02 40.742C417.029 39.5754 416.799 38.4193 416.343 37.3452C415.888 36.2711 415.217 35.3017 414.372 34.4969C413.527 33.6922 412.526 33.0692 411.43 32.6663C410.335 32.2635 409.168 32.0895 408.003 32.1549C386.991 32.0353 366.086 32.1416 345.154 32.1948Z" fill="#2C2C2C"/>
<path d="M183.668 32.2215L150.82 31.3574C149.33 27.6887 147.642 24.073 146.405 20.3245C145.704 18.2751 145.464 16.0965 145.703 13.944C145.941 11.7914 146.651 9.71775 147.782 7.87083C148.914 6.02391 150.439 4.44914 152.249 3.25871C154.059 2.06828 156.109 1.29148 158.254 0.983659C159.572 0.756701 160.906 0.636675 162.244 0.624756H222.088C228.804 0.624756 234.056 3.37634 237.168 9.38463C238.548 11.8756 239.188 14.7082 239.014 17.55C238.84 20.3919 237.858 23.1251 236.184 25.4289C232.753 30.5599 227.726 32.5006 221.556 32.4209C208.922 32.248 196.288 32.2746 183.668 32.2215Z" fill="#2C2C2C"/>
<path d="M249.496 271.795L281.586 271.37C284.897 271.37 288.235 271.37 291.52 271.543C300.284 271.955 306.707 278.468 306.627 286.776C306.548 295.084 300.098 301.398 291.201 301.558C284.738 301.677 278.288 301.558 271.825 301.558C268.821 301.702 265.848 300.899 263.326 299.263C260.804 297.626 258.86 295.239 257.768 292.439C254.816 285.62 252.236 278.668 249.496 271.795Z" fill="#2E2C2C"/>
<path d="M150.621 170.425L165.755 143.84C188.961 162.45 202.14 186.576 204.561 216.365L174.319 214.012C171.407 196.732 164.066 181.924 150.621 170.425Z" fill="#483F40"/>
</g>
<defs>
<clipPath id="clip0_386_2621">
<rect width="512" height="327" fill="white"/>
</clipPath>
</defs>
</svg>
