<svg width="512" height="439" viewBox="0 0 512 439" fill="none" xmlns="http://www.w3.org/2000/svg">
<path d="M356.855 421.448C356.698 413.703 425.911 424.278 448.438 386.635C469.726 351.056 445.253 279.209 402.42 257.527C384.021 248.21 358.172 246.107 358.094 237.713C358.094 230.538 376.807 228.16 378.36 216.818C379.913 205.475 363.047 196.512 365.367 192.404C368.276 187.194 396.523 199.205 397.84 196.492C399.688 192.561 344.491 165.965 346.83 159.832C348.521 155.37 381.741 158.928 412.092 173.749C458.07 196.197 498.268 244.888 508.018 304.645C511.95 329.197 520.835 383.097 486.022 415.767C440.3 458.659 356.954 429.94 356.855 421.448Z" fill="#8C4B39"/>
<path d="M142.809 434.52H126.847L106.502 162.269L171.488 166.102L142.809 434.52Z" fill="#8C4B39"/>
<path d="M169.877 434.52L119.83 98.5409L200.169 61.4087L381.938 434.52H169.877Z" fill="#8C4B39"/>
<path d="M138.071 401.456H357.444V434.421H105.008C105.034 425.669 108.529 417.285 114.726 411.106C120.924 404.926 129.319 401.456 138.071 401.456Z" fill="#8C4B39"/>
<path d="M190.141 150.888H65.5547V167.301H190.141V150.888Z" fill="#F1ECBB"/>
<path d="M63.5696 161.64C71.2558 161.64 77.4868 155.409 77.4868 147.723C77.4868 140.037 71.2558 133.806 63.5696 133.806C55.8833 133.806 49.6523 140.037 49.6523 147.723C49.6523 155.409 55.8833 161.64 63.5696 161.64Z" fill="#F1ECBB"/>
<path d="M63.5696 181.219C71.2558 181.219 77.4868 174.988 77.4868 167.301C77.4868 159.615 71.2558 153.384 63.5696 153.384C55.8833 153.384 49.6523 159.615 49.6523 167.301C49.6523 174.988 55.8833 181.219 63.5696 181.219Z" fill="#F1ECBB"/>
<path d="M190.144 161.64C197.83 161.64 204.061 155.409 204.061 147.723C204.061 140.037 197.83 133.806 190.144 133.806C182.458 133.806 176.227 140.037 176.227 147.723C176.227 155.409 182.458 161.64 190.144 161.64Z" fill="#F1ECBB"/>
<path d="M190.144 181.219C197.83 181.219 204.061 174.988 204.061 167.301C204.061 159.615 197.83 153.384 190.144 153.384C182.458 153.384 176.227 159.615 176.227 167.301C176.227 174.988 182.458 181.219 190.144 181.219Z" fill="#F1ECBB"/>
<path d="M130.464 205.986H122.051C108.154 205.986 101.863 195.902 99.642 182.162L64.2593 32.7683C63.6202 28.7226 63.8655 24.5865 64.9782 20.6447C66.091 16.7029 68.0448 13.049 70.7051 9.93472C73.3654 6.82043 76.6691 4.31967 80.3886 2.60462C84.1081 0.889564 88.1551 0.00096677 92.251 6.46892e-06H156.215C160.26 -0.00272579 164.258 0.860082 167.941 2.53047C171.625 4.20086 174.908 6.64015 177.57 9.68448C180.233 12.7288 182.213 16.3077 183.378 20.1807C184.543 24.0538 184.866 28.1313 184.325 32.1393L152.972 181.533C151.085 195.49 144.558 205.986 130.464 205.986Z" fill="#C76F4E"/>
<path d="M113.108 68.3083C113.108 79.6111 103.948 80.3384 92.6448 80.3384C81.342 80.3384 72.1622 79.6111 72.1622 68.3083C72.0772 65.5664 72.5439 62.8353 73.5345 60.2772C74.5251 57.7191 76.0195 55.386 77.929 53.4165C79.8385 51.4469 82.1241 49.881 84.6503 48.8116C87.1765 47.7422 89.8918 47.1912 92.635 47.1912C95.3782 47.1912 98.0935 47.7422 100.62 48.8116C103.146 49.881 105.432 51.4469 107.341 53.4165C109.251 55.386 110.745 57.7191 111.736 60.2772C112.726 62.8353 113.193 65.5664 113.108 68.3083Z" fill="white"/>
<path d="M177.975 68.3083C177.975 79.6111 168.815 80.3384 157.512 80.3384C146.209 80.3384 137.029 79.6111 137.029 68.3083C136.944 65.5664 137.411 62.8353 138.402 60.2772C139.392 57.7191 140.887 55.386 142.796 53.4165C144.706 51.4469 146.991 49.881 149.517 48.8116C152.044 47.7422 154.759 47.1912 157.502 47.1912C160.245 47.1912 162.961 47.7422 165.487 48.8116C168.013 49.881 170.299 51.4469 172.208 53.4165C174.118 55.386 175.612 57.7191 176.603 60.2772C177.593 62.8353 178.06 65.5664 177.975 68.3083Z" fill="white"/>
<path d="M74.0474 7.86288C57.5944 0.196625 18.4768 60.7208 10.7516 72.7312C10.7516 72.7312 -4.01086 95.5334 1.06067 100.408C4.44169 103.652 15.2924 97.5778 17.2384 100.723C18.752 103.141 12.6977 107.603 14.3095 111.298C15.9214 114.994 26.7328 107.229 30.6839 112.576C32.9444 115.643 28.8951 123.859 31.0574 125.235C34.517 127.437 41.2594 122.621 42.8516 121.52C59.6977 109.411 93.331 16.8462 74.0474 7.86288Z" fill="#723E36"/>
<path d="M175.676 5.46458C192.129 -2.18202 231.247 58.3421 238.972 70.3329C238.972 70.3329 253.715 93.1351 248.643 98.0101C245.262 101.254 234.431 95.1795 232.466 98.3049C230.952 100.742 237.026 105.205 235.414 108.9C233.802 112.596 222.991 104.811 219.04 110.158C216.76 113.244 220.809 121.461 218.666 122.817C215.187 125.039 208.464 120.223 206.872 119.102C190.026 107.013 156.353 14.4479 175.676 5.46458Z" fill="#723E36"/>
<path d="M102.453 178.447C102.453 178.447 113.265 159.95 127.024 159.95C140.784 159.95 151.262 178.447 151.262 178.447C151.262 178.447 136.165 178.781 127.024 186.801C119.615 182.101 111.192 179.237 102.453 178.447Z" fill="#723E36"/>
<path d="M92.6048 76.4857C99.4551 76.4857 105.008 70.9324 105.008 64.0821C105.008 57.2317 99.4551 51.6785 92.6048 51.6785C85.7545 51.6785 80.2012 57.2317 80.2012 64.0821C80.2012 70.9324 85.7545 76.4857 92.6048 76.4857Z" fill="#723E36"/>
<path d="M157.472 76.4857C164.322 76.4857 169.876 70.9324 169.876 64.0821C169.876 57.2317 164.322 51.6785 157.472 51.6785C150.622 51.6785 145.068 57.2317 145.068 64.0821C145.068 70.9324 150.622 76.4857 157.472 76.4857Z" fill="#723E36"/>
<path d="M83.8773 64.6128C87.4491 64.6128 90.3445 61.7174 90.3445 58.1456C90.3445 54.5739 87.4491 51.6785 83.8773 51.6785C80.3056 51.6785 77.4102 54.5739 77.4102 58.1456C77.4102 61.7174 80.3056 64.6128 83.8773 64.6128Z" fill="white"/>
<path d="M151.006 64.6128C154.578 64.6128 157.473 61.7174 157.473 58.1456C157.473 54.5739 154.578 51.6785 151.006 51.6785C147.435 51.6785 144.539 54.5739 144.539 58.1456C144.539 61.7174 147.435 64.6128 151.006 64.6128Z" fill="white"/>
<path d="M102.217 44.8967C108.296 44.8967 113.225 42.4765 113.225 39.491C113.225 36.5055 108.296 34.0853 102.217 34.0853C96.1374 34.0853 91.209 36.5055 91.209 39.491C91.209 42.4765 96.1374 44.8967 102.217 44.8967Z" fill="#723E36"/>
<path d="M142.848 44.8967C148.927 44.8967 153.856 42.4765 153.856 39.491C153.856 36.5055 148.927 34.0853 142.848 34.0853C136.768 34.0853 131.84 36.5055 131.84 39.491C131.84 42.4765 136.768 44.8967 142.848 44.8967Z" fill="#723E36"/>
</svg>
