<svg width="483" height="512" viewBox="0 0 483 512" fill="none" xmlns="http://www.w3.org/2000/svg">
<path d="M88.7871 107.982V11.3067C88.7871 5.65332 92.3386 1.06665 96.5648 1.06665H109.03C113.328 1.06665 116.808 5.65332 116.808 11.3067V21.0844C116.808 26.7378 120.36 31.2889 124.586 31.2889C128.883 31.2889 132.399 26.7378 132.399 21.0844V11.3067C132.399 5.65332 135.951 1.06665 140.177 1.06665H153.53C157.828 1.06665 161.308 5.65332 161.308 11.3067V19.9111C161.308 25.5289 164.86 30.1155 169.086 30.1155H169.796C174.093 30.1155 177.574 31.3244 177.574 25.6711V14.2222C177.574 8.56887 181.125 4.01777 185.352 4.01777H196.219C200.516 4.01777 203.997 8.56887 203.997 14.2222V175.467C203.997 181.084 200.445 185.671 196.219 185.671H129.984C128.567 185.59 127.202 185.11 126.046 184.286C124.889 183.462 123.989 182.327 123.449 181.013L90.1722 113.458C89.2974 111.763 88.8235 109.89 88.7871 107.982Z" fill="#F24942"/>
<path d="M437.471 281.849H119.579C96.0415 281.849 76.9609 300.951 76.9609 324.516V466.916C76.9609 490.48 96.0415 509.582 119.579 509.582H437.471C461.008 509.582 480.088 490.48 480.088 466.916V324.516C480.088 300.951 461.008 281.849 437.471 281.849Z" fill="#F3F0F0"/>
<path d="M162.161 57.8489H119.579C96.0415 57.8489 76.9609 76.9514 76.9609 100.516V418.773C76.9609 442.337 96.0415 461.44 119.579 461.44H162.161C185.698 461.44 204.778 442.337 204.778 418.773V100.516C204.778 76.9514 185.698 57.8489 162.161 57.8489Z" fill="#F3F0F0"/>
<path d="M31.5557 138.109L126.218 176.514C127.894 177.194 129.232 178.513 129.937 180.18C130.642 181.848 130.656 183.727 129.977 185.405L124.455 199.047C123.776 200.725 122.458 202.065 120.793 202.77C119.128 203.476 117.25 203.49 115.574 202.81L7.28486 158.876C5.6088 158.196 4.27119 156.877 3.56631 155.21C2.86143 153.543 2.84702 151.663 3.52624 149.985C5.67002 144.689 9.82748 140.463 15.084 138.235C20.3406 136.008 26.2656 135.962 31.5557 138.109Z" fill="#FEAA4E"/>
<path d="M21.0495 196.435L113.464 176.82C114.342 176.629 115.249 176.613 116.133 176.774C117.017 176.935 117.861 177.269 118.615 177.758C119.37 178.246 120.021 178.879 120.53 179.62C121.039 180.361 121.398 181.195 121.584 182.075L124.633 196.475C125.009 198.246 124.665 200.094 123.68 201.612C122.694 203.13 121.146 204.193 119.377 204.569L41.3107 221.139C35.7269 222.324 29.9014 221.24 25.116 218.125C20.3305 215.01 16.977 210.12 15.7931 204.529C15.4181 202.758 15.7611 200.91 16.7469 199.392C17.7327 197.875 19.2803 196.811 21.0495 196.435Z" fill="#FEAA4E"/>
<path d="M156.513 159.147C174.656 159.147 189.364 144.422 189.364 126.258C189.364 108.094 174.656 93.3689 156.513 93.3689C138.37 93.3689 123.662 108.094 123.662 126.258C123.662 144.422 138.37 159.147 156.513 159.147Z" fill="black"/>
<path d="M164.575 133.369C172.95 133.369 179.74 126.572 179.74 118.187C179.74 109.802 172.95 103.004 164.575 103.004C156.2 103.004 149.41 109.802 149.41 118.187C149.41 126.572 156.2 133.369 164.575 133.369Z" fill="#F3F0F0"/>
<path d="M330.287 282.204C309.191 281.422 287.918 282.204 266.822 282.204H207.228L198.882 298.667H306.989C328.937 298.667 348.861 296.356 360.474 319.787C364.807 328.462 359.089 333.084 354.153 341.12C346.623 353.351 338.881 365.511 330.855 377.458C321.728 391.147 312.316 404.836 301.875 417.564C297.471 422.933 287.278 438.436 279.607 439.076H153.672C145.823 439.076 138.223 439.36 131.014 436.089L123.662 450.916C144.971 460.836 176.934 455.644 198.918 455.644H279.749C280.671 455.633 281.583 455.465 282.448 455.147C303.757 451.022 321.515 419.876 332.666 404.16C347.653 383.076 366.334 359.893 376.74 336.036C388.886 308.231 354.614 283.129 330.287 282.204Z" fill="#AFADAD"/>
<path d="M203.108 353.92H354.294C364.948 353.92 364.948 337.387 354.294 337.387H203.108C192.454 337.387 192.454 353.92 203.108 353.92Z" fill="#AFADAD"/>
<path d="M316.898 394.169H186.026C175.372 394.169 175.372 410.738 186.026 410.738H316.898C327.552 410.738 327.552 394.169 316.898 394.169Z" fill="#AFADAD"/>
</svg>
