<svg width="64" height="64" viewBox="0 0 64 64" fill="none" xmlns="http://www.w3.org/2000/svg">
<g clip-path="url(#clip0_450_2083)">
<g filter="url(#filter0_i_450_2083)">
<path d="M2.83373 10.2007C-3.97724 17.0116 1.91049 33.9421 15.9843 48.016C30.0582 62.0898 46.9884 67.9772 53.7993 61.1663L60.9393 54.0266C61.911 45.727 54.1125 31.6221 43.2453 20.755C32.3781 9.88783 18.273 2.08899 9.97337 3.06075L2.83373 10.2007Z" fill="url(#paint0_linear_450_2083)"/>
</g>
<g filter="url(#filter1_b_450_2083)">
<path d="M61.6156 53.35C55.3969 59.5687 38.9465 53.2008 24.8726 39.1269C10.7986 25.0529 4.43073 8.60252 10.6494 2.38381C16.8681 -3.8349 33.3186 2.53301 47.3925 16.6069C61.4664 30.6808 67.8343 47.1313 61.6156 53.35Z" fill="url(#paint1_linear_450_2083)"/>
</g>
<g filter="url(#filter2_i_450_2083)">
<path d="M56.877 48.6075C51.9675 53.517 38.701 48.2104 27.2455 36.7549C15.79 25.2994 10.4834 12.0329 15.3929 7.12338C20.3024 2.21388 33.5689 7.52047 45.0244 18.976C56.4799 30.4315 61.7865 43.698 56.877 48.6075Z" fill="url(#paint2_linear_450_2083)"/>
</g>
<g filter="url(#filter3_f_450_2083)">
<path d="M47.816 40.0285L37.3177 29.5301L38.6713 26.3717L49.1696 36.87L47.816 40.0285ZM30.2158 34.2811L37.7617 18.3508L38.1968 18.7859L30.6855 34.7509L30.2158 34.2811ZM34.9357 17.8951L28.8744 30.569L26.0684 27.763L32.1299 15.0892L34.9357 17.8951Z" stroke="#455B75" stroke-opacity="0.65"/>
</g>
<g style="mix-blend-mode:overlay">
<g filter="url(#filter4_i_450_2083)">
<path d="M36.7247 29.6443L38.5026 25.4959L49.7626 36.7558L47.9847 40.9042L36.7247 29.6443Z" fill="#A49FCB" fill-opacity="0.21"/>
<path d="M30.835 35.6075L29.6131 34.3855L37.6136 17.4956L38.7988 18.6809L30.835 35.6075Z" fill="#A49FCB" fill-opacity="0.21"/>
<path d="M29.0206 31.4222L25.4647 27.8664L31.9837 14.236L35.5394 17.7917L29.0206 31.4222Z" fill="#A49FCB" fill-opacity="0.21"/>
</g>
<path d="M47.7317 39.5906L37.6141 29.473L38.7556 26.8096L48.8732 36.9271L47.7317 39.5906ZM30.5171 34.2289L37.8358 18.7785L37.8958 18.8385L30.6107 34.3225L30.5171 34.2289ZM34.6339 17.9468L28.8013 30.1423L26.3703 27.7113L32.203 15.5159L34.6339 17.9468Z" stroke="#CBCAD9" stroke-opacity="0.65" stroke-width="1.5"/>
</g>
</g>
<defs>
<filter id="filter0_i_450_2083" x="0" y="2.979" width="61.0215" height="61.021" filterUnits="userSpaceOnUse" color-interpolation-filters="sRGB">
<feFlood flood-opacity="0" result="BackgroundImageFix"/>
<feBlend mode="normal" in="SourceGraphic" in2="BackgroundImageFix" result="shape"/>
<feColorMatrix in="SourceAlpha" type="matrix" values="0 0 0 0 0 0 0 0 0 0 0 0 0 0 0 0 0 0 127 0" result="hardAlpha"/>
<feOffset/>
<feGaussianBlur stdDeviation="4"/>
<feComposite in2="hardAlpha" operator="arithmetic" k2="-1" k3="1"/>
<feColorMatrix type="matrix" values="0 0 0 0 0 0 0 0 0 0 0 0 0 0 0 0 0 0 0.25 0"/>
<feBlend mode="normal" in2="shape" result="effect1_innerShadow_450_2083"/>
</filter>
<filter id="filter1_b_450_2083" x="0.265625" y="-8" width="71.7334" height="71.7339" filterUnits="userSpaceOnUse" color-interpolation-filters="sRGB">
<feFlood flood-opacity="0" result="BackgroundImageFix"/>
<feGaussianBlur in="BackgroundImageFix" stdDeviation="4"/>
<feComposite in2="SourceAlpha" operator="in" result="effect1_backgroundBlur_450_2083"/>
<feBlend mode="normal" in="SourceGraphic" in2="effect1_backgroundBlur_450_2083" result="shape"/>
</filter>
<filter id="filter2_i_450_2083" x="13.5625" y="5.29297" width="45.1445" height="45.145" filterUnits="userSpaceOnUse" color-interpolation-filters="sRGB">
<feFlood flood-opacity="0" result="BackgroundImageFix"/>
<feBlend mode="normal" in="SourceGraphic" in2="BackgroundImageFix" result="shape"/>
<feColorMatrix in="SourceAlpha" type="matrix" values="0 0 0 0 0 0 0 0 0 0 0 0 0 0 0 0 0 0 127 0" result="hardAlpha"/>
<feOffset/>
<feGaussianBlur stdDeviation="2.5"/>
<feComposite in2="hardAlpha" operator="arithmetic" k2="-1" k3="1"/>
<feColorMatrix type="matrix" values="0 0 0 0 0 0 0 0 0 0 0 0 0 0 0 0 0 0 0.25 0"/>
<feBlend mode="normal" in2="shape" result="effect1_innerShadow_450_2083"/>
</filter>
<filter id="filter3_f_450_2083" x="22.4648" y="11.2358" width="30.2979" height="32.6685" filterUnits="userSpaceOnUse" color-interpolation-filters="sRGB">
<feFlood flood-opacity="0" result="BackgroundImageFix"/>
<feBlend mode="normal" in="SourceGraphic" in2="BackgroundImageFix" result="shape"/>
<feGaussianBlur stdDeviation="1.5" result="effect1_foregroundBlur_450_2083"/>
</filter>
<filter id="filter4_i_450_2083" x="25.4648" y="14.2358" width="24.2979" height="26.6685" filterUnits="userSpaceOnUse" color-interpolation-filters="sRGB">
<feFlood flood-opacity="0" result="BackgroundImageFix"/>
<feBlend mode="normal" in="SourceGraphic" in2="BackgroundImageFix" result="shape"/>
<feColorMatrix in="SourceAlpha" type="matrix" values="0 0 0 0 0 0 0 0 0 0 0 0 0 0 0 0 0 0 127 0" result="hardAlpha"/>
<feOffset/>
<feGaussianBlur stdDeviation="0.5"/>
<feComposite in2="hardAlpha" operator="arithmetic" k2="-1" k3="1"/>
<feColorMatrix type="matrix" values="0 0 0 0 0 0 0 0 0 0 0 0 0 0 0 0 0 0 0.1 0"/>
<feBlend mode="normal" in2="shape" result="effect1_innerShadow_450_2083"/>
</filter>
<linearGradient id="paint0_linear_450_2083" x1="-2.09124" y1="19.2742" x2="73.4691" y2="47.4241" gradientUnits="userSpaceOnUse">
<stop offset="0.00148054" stop-color="#255192" stop-opacity="0.66"/>
<stop offset="1" stop-color="#450F89" stop-opacity="0.47"/>
</linearGradient>
<linearGradient id="paint1_linear_450_2083" x1="25.1704" y1="-3.83915" x2="50.9498" y2="61.0538" gradientUnits="userSpaceOnUse">
<stop stop-color="white" stop-opacity="0.4"/>
<stop offset="1" stop-color="white" stop-opacity="0.1"/>
</linearGradient>
<linearGradient id="paint2_linear_450_2083" x1="63.3953" y1="48.6075" x2="12.1328" y2="10.3829" gradientUnits="userSpaceOnUse">
<stop stop-color="#52379E" stop-opacity="0.1"/>
<stop offset="1" stop-color="#298FAE" stop-opacity="0.4"/>
</linearGradient>
<clipPath id="clip0_450_2083">
<rect width="64" height="64" fill="white"/>
</clipPath>
</defs>
</svg>
