<svg width="13" height="22" viewBox="0 0 13 22" fill="none" xmlns="http://www.w3.org/2000/svg">
<path d="M4.25 15.6435V15.4545C4.26326 14.2216 4.38589 13.2405 4.6179 12.5114C4.85653 11.7822 5.1946 11.1922 5.6321 10.7415C6.0696 10.2907 6.59659 9.87973 7.21307 9.50852C7.6108 9.25663 7.96875 8.9749 8.28693 8.66335C8.60511 8.3518 8.85701 7.99384 9.04261 7.58949C9.22822 7.18513 9.32102 6.73769 9.32102 6.24716C9.32102 5.6572 9.18182 5.14678 8.90341 4.71591C8.625 4.28504 8.25379 3.9536 7.78977 3.72159C7.33239 3.48295 6.82197 3.36364 6.25852 3.36364C5.74811 3.36364 5.26089 3.4697 4.79688 3.68182C4.33286 3.89394 3.94839 4.22538 3.64347 4.67614C3.33854 5.12026 3.16288 5.69365 3.11648 6.39631H0.09375C0.140152 5.20312 0.441761 4.19555 0.99858 3.37358C1.5554 2.54498 2.29119 1.91856 3.20597 1.49432C4.12737 1.07007 5.14489 0.857954 6.25852 0.857954C7.47822 0.857954 8.54545 1.08665 9.46023 1.54403C10.375 1.99479 11.0843 2.62784 11.5881 3.44318C12.0985 4.25189 12.3537 5.1965 12.3537 6.27699C12.3537 7.01941 12.2377 7.68892 12.0057 8.28551C11.7737 8.87547 11.4422 9.40246 11.0114 9.86648C10.5871 10.3305 10.0767 10.7415 9.48011 11.0994C8.91667 11.4508 8.45928 11.8153 8.10795 12.1932C7.76326 12.571 7.51136 13.0185 7.35227 13.5355C7.19318 14.0526 7.10701 14.6922 7.09375 15.4545V15.6435H4.25ZM5.75142 21.6889C5.20786 21.6889 4.74053 21.4967 4.34943 21.1122C3.95833 20.7211 3.76278 20.2505 3.76278 19.7003C3.76278 19.1567 3.95833 18.6927 4.34943 18.3082C4.74053 17.9171 5.20786 17.7216 5.75142 17.7216C6.28835 17.7216 6.75237 17.9171 7.14347 18.3082C7.54119 18.6927 7.74006 19.1567 7.74006 19.7003C7.74006 20.0649 7.64725 20.3996 7.46165 20.7045C7.28267 21.0028 7.04403 21.2415 6.74574 21.4205C6.44744 21.5994 6.116 21.6889 5.75142 21.6889Z" fill="#777777"/>
</svg>
