<svg width="252" height="321" viewBox="0 0 252 321" fill="none" xmlns="http://www.w3.org/2000/svg">
<path d="M14.8192 223.827C5.621 187.033 31.1721 168.126 48.5464 176.302C65.9207 184.479 46.2468 191.122 48.5464 212.585C50.846 234.047 54.7336 247.845 58.256 256.532C61.7783 265.22 63.1106 271.863 55.9563 271.863C48.8021 271.863 24.0174 260.62 14.8192 223.827Z" fill="#D7DDE0"/>
<mask id="mask0_351_2830" style="mask-type:alpha" maskUnits="userSpaceOnUse" x="12" y="174" width="50" height="98">
<path d="M14.8192 223.827C5.621 187.033 31.1721 168.126 48.5464 176.302C65.9207 184.479 46.2468 191.122 48.5464 212.585C50.846 234.047 54.7336 247.845 58.256 256.532C61.7783 265.22 63.1106 271.863 55.9563 271.863C48.8021 271.863 24.0174 260.62 14.8192 223.827Z" fill="#D7DDE0"/>
</mask>
<g mask="url(#mask0_351_2830)">
<path d="M61.0665 271.097C56.4673 258.577 46.7576 216.162 48.5462 176.302C44.7137 176.302 35.5158 183.457 35.5156 199.043C35.5155 214.629 38.5814 237.369 61.0665 271.097Z" fill="#1C265F"/>
<path d="M55.7011 257.043C51.1019 244.523 50.4197 216.162 52.2083 176.302C48.3758 176.302 42.8649 184.99 41.1367 190.866C39.4084 196.743 36.7933 215.14 55.7011 257.043Z" fill="#04ABDF"/>
</g>
<path d="M237.061 223.827C246.259 187.033 220.708 168.126 203.333 176.302C185.959 184.479 205.633 191.122 203.333 212.585C201.034 234.047 197.146 247.845 193.624 256.532C190.102 265.22 188.769 271.863 195.924 271.863C203.078 271.863 227.863 260.62 237.061 223.827Z" fill="#D7DDE0"/>
<mask id="mask1_351_2830" style="mask-type:alpha" maskUnits="userSpaceOnUse" x="190" y="174" width="50" height="98">
<path d="M237.061 223.827C246.259 187.033 220.708 168.126 203.333 176.302C185.959 184.479 205.633 191.122 203.333 212.585C201.034 234.047 197.146 247.845 193.624 256.532C190.102 265.22 188.769 271.863 195.924 271.863C203.078 271.863 227.863 260.62 237.061 223.827Z" fill="#D7DDE0"/>
</mask>
<g mask="url(#mask1_351_2830)">
<path d="M190.813 271.097C195.413 258.577 205.122 216.162 203.334 176.302C207.166 176.302 216.364 183.457 216.364 199.043C216.364 214.629 213.298 237.369 190.813 271.097Z" fill="#1C265F"/>
<path d="M196.179 257.043C200.778 244.523 201.46 216.162 199.672 176.302C203.504 176.302 209.015 184.99 210.743 190.866C212.471 196.743 215.087 215.14 196.179 257.043Z" fill="#04ABDF"/>
</g>
<path d="M206.964 198.715C206.964 265.925 170.701 320.409 125.967 320.409C81.2342 320.409 44.9707 265.925 44.9707 198.715C44.9707 131.505 125.967 133.381 125.967 133.381C125.967 133.381 206.964 131.505 206.964 198.715Z" fill="#D7DDE0"/>
<mask id="mask2_351_2830" style="mask-type:alpha" maskUnits="userSpaceOnUse" x="44" y="133" width="163" height="188">
<path d="M206.963 198.715C206.963 265.925 170.7 320.41 125.966 320.41C81.2332 320.41 44.9697 265.925 44.9697 198.715C44.9697 131.505 125.966 133.382 125.966 133.382C125.966 133.382 206.963 131.505 206.963 198.715Z" fill="#E9EFF1"/>
</mask>
<g mask="url(#mask2_351_2830)">
<path d="M201.853 172.176C201.853 177.527 190.641 186.394 173.686 190.725C156.731 195.057 149.134 200.5 133 200.5C116.866 200.5 100.945 193.833 84.5367 190.725C68.1288 187.617 50.0801 177.291 50.0801 172.176C50.0801 163.17 79.6351 158.417 124.189 158.417C168.743 158.417 201.853 163.17 201.853 172.176Z" fill="black" fill-opacity="0.2"/>
<path d="M47.5256 179.113C47.5256 179.113 49.4302 178.602 50.336 188.567C51.2418 198.532 47.0144 210.03 52.1248 248.867C52.1248 248.867 44.4594 230.726 42.1599 209.519C39.8603 188.311 47.5256 179.113 47.5256 179.113Z" fill="#04ABDF" fill-opacity="0.2"/>
<path d="M204.408 178.862C204.408 178.862 202.503 178.351 201.598 188.316C200.692 198.281 204.919 209.779 199.809 248.616C199.809 248.616 207.474 230.475 209.774 209.268C212.073 188.06 204.408 178.862 204.408 178.862Z" fill="#04ABDF" fill-opacity="0.2"/>
</g>
<path d="M243.246 96.5832C243.246 160.358 190.624 183.968 125.711 183.968C60.7988 183.968 8.17676 160.358 8.17676 96.5832C8.17676 32.8088 60.7988 9.19873 125.711 9.19873C190.624 9.19873 243.246 32.8088 243.246 96.5832Z" fill="#D7DDE0"/>
<path fill-rule="evenodd" clip-rule="evenodd" d="M125.711 147.429V147.429C116.306 147.429 112.389 148.362 107.154 149.61C103.726 150.427 99.7323 151.378 93.2618 152.291C76.9092 154.597 60.9427 152.291 45.7368 133.639C30.531 114.987 18.3971 50.5913 125.711 52.1303V52.1302C233.026 50.5911 220.892 114.986 205.686 133.638C190.48 152.29 174.514 154.597 158.161 152.291C151.69 151.378 147.697 150.426 144.269 149.61C139.033 148.362 135.117 147.429 125.711 147.429Z" fill="#1C265F"/>
<mask id="mask3_351_2830" style="mask-type:alpha" maskUnits="userSpaceOnUse" x="8" y="9" width="236" height="175">
<path d="M243.245 96.5827C243.245 160.357 190.623 183.967 125.711 183.967C60.7979 183.967 8.17578 160.357 8.17578 96.5827C8.17578 32.8083 60.7979 9.19824 125.711 9.19824C190.623 9.19824 243.245 32.8083 243.245 96.5827Z" fill="#D7DDE0"/>
</mask>
<g mask="url(#mask3_351_2830)">
<path d="M102.97 9.45361L103.559 10.2201C102.295 13.3958 101.515 17.4687 101.515 20.9568C101.515 22.5737 101.887 24.0009 102.671 25.2471C103.457 26.4967 104.698 27.6262 106.532 28.5816C109.962 30.3693 118.062 32.2608 126.044 32.4322V37.8153C117.486 37.7953 106.512 36.0267 101.515 30.4055C96.5183 24.7842 100.415 12.0087 102.97 9.45361Z" fill="#1C265F"/>
<path d="M148.784 9.45361L148.195 10.2201C149.459 13.3958 150.239 17.4687 150.239 20.9568C150.239 22.5737 149.867 24.0009 149.083 25.2471C148.297 26.4967 147.056 27.6262 145.222 28.5816C141.792 30.3693 133.692 32.2608 125.71 32.4322V37.8153C134.268 37.7953 145.242 36.0267 150.239 30.4055C155.236 24.7842 151.339 12.0087 148.784 9.45361Z" fill="#1C265F"/>
<path d="M103.904 9.70898L104.474 10.3996C103.251 13.2605 102.497 16.9298 102.497 20.0722C102.497 21.5289 102.856 22.8146 103.615 23.9374C104.375 25.0631 105.575 26.0807 107.349 26.9414C110.667 28.5519 118.5 30.256 126.221 30.4104V35.26C117.944 35.242 107.33 33.6487 102.497 28.5845C97.6638 23.5203 101.432 12.0109 103.904 9.70898Z" fill="#04ABDF" fill-opacity="0.2"/>
<path d="M148.03 9.70898L147.46 10.3996C148.682 13.2605 149.435 16.9298 149.435 20.0722C149.435 21.5289 149.077 22.8146 148.318 23.9374C147.558 25.0631 146.359 26.0807 144.587 26.9414C141.272 28.5519 133.935 30.256 126.221 30.4104V35.26C134.492 35.242 144.606 33.6487 149.435 28.5845C154.265 23.5203 150.499 12.0109 148.03 9.70898Z" fill="#04ABDF" fill-opacity="0.2"/>
<path d="M247.078 88.662L245.276 87.8751C243.101 87.0119 240.313 86.4797 237.925 86.4797C236.817 86.4797 235.84 86.7333 234.987 87.2688C234.131 87.8057 233.358 88.6526 232.704 89.9045C231.48 92.2468 230.185 97.7764 230.067 103.226L226.382 103.226C226.395 97.3835 227.606 89.8911 231.455 86.4797C235.304 83.0683 245.034 86.3624 247.078 88.662Z" fill="#1C265F"/>
<path d="M246.822 117.534L245.275 118.066C243.101 118.929 240.312 119.461 237.924 119.461C236.817 119.461 235.84 119.208 234.987 118.672C234.131 118.135 233.358 117.288 232.704 116.036C231.48 113.694 230.184 108.164 230.067 102.715L226.381 102.715C226.395 108.557 227.606 116.05 231.455 119.461C235.304 122.873 244.523 120.09 246.822 117.534Z" fill="#1C265F"/>
<path d="M245.289 87.9104L244.819 88.3016C242.874 87.4623 240.379 86.9449 238.242 86.9449C237.252 86.9449 236.377 87.1914 235.614 87.712C234.848 88.234 234.156 89.0574 233.571 90.2746C232.476 92.5518 231.317 97.9278 231.212 103.226L227.914 103.226C227.927 97.5457 229.01 90.2615 232.454 86.9449C235.897 83.6282 243.724 86.2144 245.289 87.9104Z" fill="#04ABDF" fill-opacity="0.2"/>
<path d="M245.289 118.056L244.819 117.669C242.874 118.5 240.379 119.012 238.242 119.012C237.252 119.012 236.377 118.768 235.614 118.253C234.848 117.736 234.156 116.92 233.571 115.715C232.476 113.461 231.317 108.472 231.212 103.226L227.914 103.226C227.927 108.85 229.01 115.728 232.454 119.012C235.897 122.296 243.724 119.735 245.289 118.056Z" fill="#04ABDF" fill-opacity="0.2"/>
<path d="M5.10938 116.884L6.91175 117.671C9.08606 118.534 11.8747 119.066 14.263 119.066C15.37 119.066 16.3472 118.813 17.2005 118.277C18.0561 117.74 18.8294 116.893 19.4836 115.641C20.7076 113.299 22.0027 107.769 22.12 102.32L25.8057 102.32C25.792 108.162 24.5811 115.655 20.7323 119.066C16.8836 122.478 7.15346 119.184 5.10938 116.884Z" fill="#1C265F"/>
<path d="M5.36523 88.011L6.91211 87.4796C9.08643 86.6164 11.8751 86.0842 14.2634 86.0842C15.3704 86.0842 16.3476 86.3378 17.2009 86.8733C18.0564 87.4101 18.8298 88.2571 19.484 89.509C20.7079 91.8513 22.003 97.3809 22.1204 102.831L25.8061 102.831C25.7924 96.9879 24.5815 89.4956 20.7327 86.0842C16.8839 82.6728 7.66483 85.4559 5.36523 88.011Z" fill="#1C265F"/>
<path d="M6.89844 117.636L7.36802 117.244C9.31346 118.084 11.8086 118.601 13.9454 118.601C14.9359 118.601 15.8103 118.354 16.5738 117.834C17.3393 117.312 18.0312 116.488 18.6165 115.271C19.7116 112.994 20.8704 107.618 20.9754 102.32L24.2731 102.32C24.2609 108 23.1774 115.284 19.7338 118.601C16.2902 121.918 8.46373 119.332 6.89844 117.636Z" fill="#04ABDF" fill-opacity="0.2"/>
<path d="M6.89844 87.4897L7.36802 87.877C9.31346 87.0461 11.8086 86.5338 13.9454 86.5338C14.9359 86.5338 15.8103 86.7779 16.5738 87.2933C17.3393 87.8102 18.0312 88.6255 18.6165 89.8305C19.7116 92.0853 20.8704 97.074 20.9754 102.32L24.2731 102.32C24.2609 96.6957 23.1774 89.8176 19.7338 86.5338C16.2902 83.2499 8.46372 85.8105 6.89844 87.4897Z" fill="#04ABDF" fill-opacity="0.2"/>
</g>
<path d="M82.7571 215.944C76.1902 230.859 91.4726 277.484 125.711 277.484L125.711 205.942C105.772 205.942 86.0437 208.479 82.7571 215.944Z" fill="#1C265F"/>
<path d="M91.6591 220.372C86.22 231.985 97.7905 269.308 125.711 269.308L125.711 212.585C109.196 212.585 94.3813 214.56 91.6591 220.372Z" fill="#04ABDF" fill-opacity="0.2"/>
<path d="M95.0998 222.213C90.4209 232.76 101.693 265.731 125.711 265.731L125.711 215.14C111.504 215.14 97.4415 216.934 95.0998 222.213Z" fill="#04ABDF"/>
<path d="M168.665 215.944C175.232 230.859 159.949 277.484 125.711 277.484L125.711 205.942C145.65 205.942 165.378 208.479 168.665 215.944Z" fill="#1C265F"/>
<path d="M159.763 220.372C165.202 231.985 153.631 269.308 125.711 269.308L125.711 212.585C142.226 212.585 157.041 214.56 159.763 220.372Z" fill="#04ABDF" fill-opacity="0.2"/>
<path d="M156.322 222.213C161.001 232.76 149.729 265.731 125.711 265.731L125.711 215.14C139.917 215.14 153.98 216.934 156.322 222.213Z" fill="#04ABDF"/>
<path d="M104.248 110.891C104.248 119.923 96.927 123.667 87.8956 123.667C78.8643 123.667 71.543 119.923 71.543 110.891C71.543 101.86 78.8643 93.5166 87.8956 93.5166C96.927 93.5166 104.248 101.86 104.248 110.891Z" fill="#04ABDF"/>
<path d="M178.858 110.891C178.858 119.923 171.536 123.667 162.505 123.667C153.474 123.667 146.152 119.923 146.152 110.891C146.152 101.86 153.474 93.5166 162.505 93.5166C171.536 93.5166 178.858 101.86 178.858 110.891Z" fill="#04ABDF"/>
<path fill-rule="evenodd" clip-rule="evenodd" d="M108.08 2.81583C103.992 5.88195 100.926 13.8028 100.926 20.9571C100.926 28.0781 107.507 32.6677 125.71 32.7102V32.7105C125.753 32.7105 125.795 32.7105 125.838 32.7105C125.88 32.7105 125.923 32.7105 125.966 32.7105V32.7102C144.168 32.6677 150.75 28.0781 150.75 20.9571C150.75 13.8028 147.684 5.88195 143.596 2.81583C139.792 -0.0367897 132.45 -0.0142636 126.919 0.00270549C126.55 0.00383764 126.189 0.00494506 125.838 0.00517221C125.487 0.00494506 125.126 0.00383764 124.757 0.00270549C119.226 -0.0142636 111.884 -0.0367897 108.08 2.81583Z" fill="#D7DDE0"/>
<mask id="mask4_351_2830" style="mask-type:alpha" maskUnits="userSpaceOnUse" x="100" y="0" width="51" height="33">
<path fill-rule="evenodd" clip-rule="evenodd" d="M108.08 2.81583C103.992 5.88195 100.926 13.8028 100.926 20.9571C100.926 28.0781 107.507 32.6677 125.71 32.7102V32.7105C125.753 32.7105 125.795 32.7105 125.838 32.7105C125.88 32.7105 125.923 32.7105 125.966 32.7105V32.7102C144.168 32.6677 150.75 28.0781 150.75 20.9571C150.75 13.8028 147.684 5.88195 143.596 2.81583C139.792 -0.0367897 132.45 -0.0142636 126.919 0.00270549C126.55 0.00383764 126.189 0.00494506 125.838 0.00517221C125.487 0.00494506 125.126 0.00383764 124.757 0.00270549C119.226 -0.0142636 111.884 -0.0367897 108.08 2.81583Z" fill="#C9CFD3"/>
</mask>
<g mask="url(#mask4_351_2830)">
<path d="M103.012 10.2472C101.709 13.5291 100.926 17.3409 100.926 20.9569C100.926 32.4565 118.147 32.6911 126.221 32.7052V29.6391C119.067 29.6391 106.442 28.8725 103.225 23.7623C100.691 19.7361 102.548 11.312 104.247 7.40967L103.225 9.70926L103.012 10.2472Z" fill="#04ABDF"/>
<path d="M148.92 10.2472C150.223 13.5291 151.006 17.3409 151.006 20.9569C151.006 32.4565 133.785 32.6911 125.71 32.7052V29.6391C132.865 29.6391 145.49 28.8725 148.706 23.7623C151.24 19.7361 149.383 11.312 147.684 7.40967L148.706 9.70926L148.92 10.2472Z" fill="#04ABDF"/>
<path d="M103.012 7.94791C101.709 11.2298 100.926 15.0416 100.926 18.6576C100.926 30.1571 118.147 30.3918 126.221 30.4059V27.3397C119.067 27.3397 106.442 26.5732 103.225 21.463C100.691 17.4368 102.548 9.01273 104.247 5.11035L103.225 7.40994L103.012 7.94791Z" fill="#04ABDF" fill-opacity="0.2"/>
<path d="M148.92 7.94791C150.223 11.2298 151.006 15.0416 151.006 18.6576C151.006 30.1571 134.296 30.3918 126.221 30.4059V27.3397C133.376 27.3397 145.49 26.5732 148.706 21.463C151.24 17.4368 149.383 9.01273 147.684 5.11035L148.706 7.40994L148.92 7.94791Z" fill="#04ABDF" fill-opacity="0.2"/>
</g>
<path fill-rule="evenodd" clip-rule="evenodd" d="M250.092 114.974C248.015 117.743 242.649 119.82 237.803 119.82C232.979 119.82 229.87 115.362 229.841 103.03L229.84 103.03C229.84 90.5678 232.956 86.0674 237.803 86.0674C242.649 86.0674 248.015 88.1445 250.092 90.914C252.025 93.4906 252.009 98.4644 251.998 102.211C251.997 102.431 251.997 102.647 251.996 102.857L251.996 102.857C251.996 103.122 251.997 103.396 251.998 103.676C252.01 107.423 252.025 112.397 250.092 114.974Z" fill="#D7DDE0"/>
<mask id="mask5_351_2830" style="mask-type:alpha" maskUnits="userSpaceOnUse" x="229" y="86" width="23" height="34">
<path fill-rule="evenodd" clip-rule="evenodd" d="M250.092 114.974C248.015 117.743 242.649 119.82 237.803 119.82C232.979 119.82 229.87 115.362 229.841 103.03L229.841 103.03C229.841 103.001 229.841 102.972 229.841 102.943C229.841 102.915 229.841 102.886 229.841 102.857L229.841 102.857C229.87 90.5261 232.979 86.0674 237.803 86.0674C242.649 86.0674 248.015 88.1445 250.092 90.914C252.025 93.4906 252.01 98.4644 251.998 102.211C251.997 102.46 251.997 102.704 251.996 102.941C251.997 103.18 251.997 103.425 251.998 103.676C252.01 107.423 252.025 112.397 250.092 114.974Z" fill="#C9CFD3"/>
</mask>
<g mask="url(#mask5_351_2830)">
<path d="M245.058 87.4804C242.835 86.598 240.253 86.0674 237.803 86.0674C230.013 86.0674 229.854 97.7336 229.844 103.204L231.921 103.204C231.921 98.3569 232.441 89.8039 235.903 87.6252C238.63 85.9087 244.337 87.1666 246.98 88.3176L245.423 87.6252L245.058 87.4804Z" fill="#04ABDF"/>
<path d="M245.058 118.581C242.835 119.463 240.253 119.994 237.803 119.994C230.013 119.994 229.854 108.327 229.844 102.858L231.921 102.858C231.921 107.704 232.441 116.257 235.903 118.436C238.63 120.152 244.337 118.894 246.98 117.743L245.423 118.436L245.058 118.581Z" fill="#04ABDF"/>
<path d="M246.616 87.4804C244.393 86.598 241.81 86.0674 239.361 86.0674C231.57 86.0674 231.411 97.7336 231.402 103.204L233.479 103.204C233.479 98.3569 233.998 89.8039 237.46 87.6252C240.188 85.9087 245.894 87.1666 248.538 88.3176L246.98 87.6252L246.616 87.4804Z" fill="#04ABDF" fill-opacity="0.2"/>
<path d="M246.616 118.581C244.393 119.463 241.81 119.994 239.361 119.994C231.57 119.994 231.411 108.674 231.402 103.204L233.479 103.204C233.479 108.05 233.998 116.257 237.46 118.436C240.188 120.152 245.894 118.894 248.538 117.743L246.98 118.436L246.616 118.581Z" fill="#04ABDF" fill-opacity="0.2"/>
</g>
<path fill-rule="evenodd" clip-rule="evenodd" d="M1.90754 90.4564C3.98465 87.6869 9.35051 85.6098 14.1971 85.6098C19.0212 85.6098 22.1304 90.0685 22.1591 102.4L22.1596 102.4C22.1596 114.862 19.0439 119.363 14.1973 119.363C9.35074 119.363 3.98488 117.286 1.90778 114.516C-0.024693 111.94 -0.00943314 106.966 0.00206221 103.219C0.00273664 102.999 0.00339812 102.783 0.00365253 102.573L0.00353175 102.573C0.00353174 102.308 0.00269243 102.034 0.00183203 101.754C-0.00966365 98.0069 -0.0249239 93.033 1.90754 90.4564Z" fill="#D7DDE0"/>
<mask id="mask6_351_2830" style="mask-type:alpha" maskUnits="userSpaceOnUse" x="0" y="85" width="23" height="35">
<path fill-rule="evenodd" clip-rule="evenodd" d="M1.90754 90.4564C3.98465 87.6869 9.35051 85.6098 14.1971 85.6098C19.0212 85.6098 22.1304 90.0685 22.1591 102.4L22.1593 102.4C22.1593 102.429 22.1593 102.458 22.1593 102.487C22.1593 102.516 22.1593 102.544 22.1593 102.573L22.1591 102.573C22.1304 114.904 19.0212 119.363 14.1971 119.363C9.35051 119.363 3.98466 117.286 1.90755 114.516C-0.0249193 111.94 -0.00965962 106.966 0.00183572 103.219C0.00259979 102.97 0.00334723 102.726 0.00350497 102.489C0.00335538 102.25 0.00260215 102.005 0.00183203 101.754C-0.00966365 98.0069 -0.0249239 93.033 1.90754 90.4564Z" fill="#C9CFD3"/>
</mask>
<g mask="url(#mask6_351_2830)">
<path d="M6.9418 117.95C9.16504 118.832 11.7473 119.363 14.1969 119.363C21.9872 119.363 22.1461 107.697 22.1557 102.227L20.0785 102.227C20.0785 107.073 19.5593 115.626 16.0974 117.805C13.3699 119.522 7.66315 118.264 5.01953 117.113L6.57736 117.805L6.9418 117.95Z" fill="#04ABDF"/>
<path d="M6.9418 86.8496C9.16504 85.9671 11.7473 85.4365 14.1969 85.4365C21.9872 85.4365 22.1461 97.1027 22.1557 102.573L20.0785 102.573C20.0785 97.7261 19.5593 89.1731 16.0974 86.9944C13.3699 85.2778 7.66315 86.5357 5.01953 87.6867L6.57736 86.9944L6.9418 86.8496Z" fill="#04ABDF"/>
<path d="M5.38418 117.95C7.60742 118.832 10.1897 119.363 12.6393 119.363C20.4295 119.363 20.5885 107.697 20.598 102.227L18.5209 102.227C18.5209 107.073 18.0017 115.626 14.5398 117.805C11.8123 119.522 6.10553 118.264 3.46191 117.113L5.01974 117.805L5.38418 117.95Z" fill="#04ABDF" fill-opacity="0.2"/>
<path d="M5.38418 86.8496C7.60742 85.9671 10.1897 85.4365 12.6393 85.4365C20.4295 85.4365 20.5885 96.7566 20.598 102.226L18.5209 102.226C18.5209 97.3799 18.0017 89.1731 14.5398 86.9944C11.8123 85.2778 6.10553 86.5357 3.46191 87.6867L5.01974 86.9944L5.38418 86.8496Z" fill="#04ABDF" fill-opacity="0.2"/>
</g>
</svg>
