<svg width="24" height="26" viewBox="0 0 24 26" fill="none" xmlns="http://www.w3.org/2000/svg">
<path d="M12.0136 0.502563C12.9545 0.513407 13.8916 0.622106 14.8099 0.826906C15.2108 0.916307 15.5106 1.2505 15.5561 1.65869L15.7742 3.61579C15.873 4.5144 16.6317 5.19501 17.5362 5.19595C17.7793 5.19633 18.0198 5.1457 18.2445 5.04631L20.0398 4.25765C20.4132 4.09363 20.8494 4.18305 21.1282 4.48076C22.4256 5.86641 23.3918 7.52827 23.9542 9.34128C24.0755 9.73222 23.9359 10.1571 23.6064 10.3999L22.0151 11.5729C21.5612 11.9064 21.2931 12.4361 21.2931 12.9994C21.2931 13.5626 21.5612 14.0923 22.0161 14.4265L23.6088 15.5999C23.9384 15.8427 24.0781 16.2676 23.9568 16.6587C23.3946 18.4714 22.4289 20.1331 21.1323 21.519C20.8538 21.8166 20.4178 21.9063 20.0445 21.7427L18.2419 20.9529C17.7262 20.7273 17.1339 20.7603 16.6465 21.042C16.1591 21.3237 15.8348 21.8203 15.7729 22.3799L15.5561 24.3368C15.5115 24.7403 15.2181 25.0722 14.8231 25.1662C12.9665 25.6079 11.0322 25.6079 9.17557 25.1662C8.78062 25.0722 8.48727 24.7403 8.44258 24.3368L8.22618 22.3828C8.16262 21.8243 7.83778 21.3291 7.3508 21.0484C6.86383 20.7677 6.27253 20.7348 5.75853 20.9592L3.95552 21.7491C3.58207 21.9127 3.14602 21.823 2.86754 21.5252C1.57017 20.1377 0.604424 18.474 0.0430072 16.6593C-0.0779155 16.2684 0.0617993 15.8439 0.3912 15.6012L1.9849 14.4271C2.43883 14.0936 2.70693 13.5639 2.70693 13.0006C2.70693 12.4374 2.43883 11.9077 1.9843 11.5737L0.391605 10.4017C0.0617151 10.1589 -0.0781282 9.73376 0.0432208 9.34256C0.60561 7.52955 1.57186 5.86769 2.86927 4.48204C3.14801 4.18433 3.58427 4.09491 3.95766 4.25894L5.75265 5.04745C6.26914 5.27411 6.86292 5.23988 7.35253 4.95384C7.84002 4.67107 8.16456 4.17391 8.22722 3.6143L8.44522 1.65869C8.49075 1.2503 8.79082 0.915994 9.19194 0.826783C10.1113 0.622308 11.0495 0.513656 12.0136 0.502563ZM12.0139 2.42512C11.4319 2.43198 10.8516 2.4822 10.2776 2.57524L10.138 3.82777C10.0075 4.99356 9.33195 6.0284 8.31983 6.61548C7.30151 7.21041 6.05996 7.282 4.97968 6.80792L3.82826 6.30212C3.09516 7.19189 2.51167 8.19506 2.1007 9.27219L3.12331 10.0247C4.07031 10.7205 4.62962 11.8255 4.62962 13.0006C4.62962 14.1758 4.07031 15.2807 3.12431 15.9758L2.10009 16.7304C2.5107 17.8094 3.09429 18.8144 3.82789 19.7059L4.98808 19.1976C6.06234 18.7286 7.29545 18.7973 8.311 19.3827C9.32654 19.968 10.004 21.0007 10.1369 22.1682L10.2765 23.4294C11.4169 23.6233 12.5818 23.6233 13.7222 23.4294L13.8618 22.1683C13.991 21.0011 14.6677 19.9649 15.6845 19.3773C16.7012 18.7897 17.9368 18.7207 19.013 19.1917L20.1723 19.6996C20.9053 18.8095 21.4886 17.8061 21.8995 16.7288L20.8767 15.9753C19.9297 15.2795 19.3704 14.1745 19.3704 12.9994C19.3704 11.8242 19.9297 10.7192 20.8755 10.0243L21.8969 9.27143C21.486 8.19411 20.9024 7.19076 20.1692 6.30084L19.0201 6.80561C18.5518 7.0128 18.0453 7.11944 17.5337 7.11864C15.6498 7.11667 14.0688 5.69838 13.8632 3.82731L13.7236 2.57484C13.1525 2.48191 12.5782 2.43182 12.0139 2.42512ZM11.9977 8.19326C14.6523 8.19326 16.8044 10.3453 16.8044 13C16.8044 15.6547 14.6523 17.8067 11.9977 17.8067C9.34297 17.8067 7.19092 15.6547 7.19092 13C7.19092 10.3453 9.34297 8.19326 11.9977 8.19326ZM11.9977 10.116C10.4048 10.116 9.11362 11.4072 9.11362 13C9.11362 14.5928 10.4048 15.884 11.9977 15.884C13.5905 15.884 14.8817 14.5928 14.8817 13C14.8817 11.4072 13.5905 10.116 11.9977 10.116Z" fill="#333333"/>
</svg>
