<svg width="332" height="117" viewBox="0 0 332 117" fill="none" xmlns="http://www.w3.org/2000/svg">
<g clip-path="url(#clip0_438_2149)">
<path d="M313.186 69.3244C309.927 69.4377 311.193 67.2184 311.079 65.7994C310.966 64.3803 310.382 62.5158 313.239 62.6517C317.719 62.863 322.207 62.6517 326.701 62.6517C316.438 54.0918 305.614 46.4604 292.812 42.0295C291.614 42.1427 290.432 42.3465 289.234 42.3541C271.8 42.3541 254.268 43.1617 236.864 42.1729C213.495 40.8519 190.142 41.5917 166.796 40.9048C157.776 40.633 148.816 38.6403 139.826 37.4627C129.108 36.0436 118.39 34.627 107.672 33.213C95.7567 31.6052 83.7956 30.2842 71.9634 28.2537C60.4321 26.3502 48.68 26.1721 37.0958 27.7253C31.1304 28.4801 25.1044 28.7745 19.1011 29.235C13.0978 29.6954 6.88229 30.1483 0.757728 30.6088C0.166495 33.0318 0.818367 34.2773 3.61535 33.8772C5.02842 33.7754 6.44703 33.7754 7.8601 33.8772H11.9002C16.5694 33.7866 16.5694 33.7866 16.5694 38.2779V57.6169C16.5694 62.1459 16.5694 62.1459 11.9002 62.0176H7.87526C6.23042 62.0176 4.578 62.1308 2.93316 62.0176C1.28832 61.9044 0.590969 62.2063 0.659188 64.0859C0.810786 70.8794 0.795626 77.6126 0.848686 84.3835L26.3399 84.3307C26.8629 76.8276 28.3865 69.6792 33.8516 63.95C34.1624 63.6632 34.4807 63.3839 34.8067 63.1046H34.7536C38.7937 57.6848 44.3877 54.7259 50.7927 53.0275C65.3992 48.4985 84.2959 56.8923 89.6094 74.9556C90.4818 77.9953 90.9657 81.1325 91.0496 84.2929C140.668 84.2929 190.288 84.3055 239.911 84.3307C240.313 76.7143 242.102 69.6113 247.582 63.8821C251.498 58.6044 257.169 54.8834 263.583 53.3823C274.787 49.7364 284.701 52.4915 293.426 59.8135C300.952 66.1466 304.341 74.5555 304.576 84.2854L323.472 84.3231C325.238 79.1676 328.217 74.5102 329.62 69.2263C324.124 69.2565 318.652 69.1357 313.186 69.3244ZM28.5154 51.0121C26.7113 54.0994 24.9225 57.2168 23.1488 60.3343C22.8536 60.9074 22.3961 61.3817 21.8329 61.6983C21.2697 62.015 20.6256 62.1601 19.9804 62.1157C17.8959 62.161 17.0166 61.5723 17.1076 59.3606C17.2592 55.4505 17.1076 51.5178 17.1076 47.6077C17.1076 43.909 17.1076 40.2103 17.1076 36.5116C17.1076 35.5001 16.6907 34.0282 18.3204 33.9452C19.8364 33.8621 21.7389 33.0469 22.6485 35.1076C24.7178 39.7801 26.6962 44.4752 28.7124 49.1703C28.8371 49.4691 28.8844 49.7944 28.8499 50.1162C28.8155 50.438 28.7005 50.7461 28.5154 51.0121Z" fill="#EE4B42"/>
<path d="M91.0266 84.3379L239.888 84.3756C240.379 89.5568 241.739 94.6193 243.913 99.3516C243.698 99.3966 243.481 99.4269 243.262 99.4422L86.9941 99.4045C87.6991 96.7323 89.5713 94.4603 89.6319 91.5768C90.7765 89.2972 90.7159 86.8062 91.0266 84.3379Z" fill="#BD4E44"/>
<path d="M292.812 42.0371C291.622 42.1503 290.425 42.3541 289.235 42.3617C271.801 42.3617 254.269 43.1618 236.865 42.1805C213.496 40.8596 190.143 41.5993 166.796 40.9049C157.776 40.6407 148.809 38.6403 139.827 37.4779C129.104 36.0437 118.373 34.607 107.635 33.1678C95.7271 31.5599 83.7736 30.2465 71.9414 28.2085C60.4096 26.3086 48.6577 26.1331 37.0738 27.6876C31.1084 28.4425 25.0824 28.7369 19.0791 29.1973C13.0758 29.6578 6.88303 30.1484 0.758466 30.6089C0.167233 27.0309 0.371891 23.9663 5.14723 23.8153C5.73089 24.0569 6.34486 24.5701 6.88303 24.4871C12.8787 23.7323 18.8669 22.8868 24.855 22.0716C29.0997 22.0716 33.2611 21.3168 37.468 20.8941C44.1307 20.1392 50.8238 19.6033 57.5017 18.9692C64.8466 20.1241 72.1839 21.3168 79.5365 22.4188C88.8294 23.8228 98.13 25.1514 107.431 26.5176C109.019 27.1426 110.719 27.4331 112.426 27.3706C116.224 28.3832 120.114 29.0154 124.038 29.2577C127.322 29.9393 130.655 30.3583 134.006 30.5107C143.681 32.5392 153.454 34.076 163.287 35.1152C164.786 35.4388 166.305 35.6557 167.835 35.7644C183.518 35.7644 199.201 35.7644 214.883 35.7644L224.654 36.3758C228.353 36.1569 231.991 37.4703 235.705 36.8212C244.907 37.5156 254.117 37.1382 263.319 37.0778C273.374 36.8985 283.374 38.5801 292.812 42.0371Z" fill="#F6766B"/>
<path d="M57.5168 18.9843C50.8389 19.6184 44.1458 20.177 37.4831 20.9092C33.2762 21.3621 29.1452 22.1169 24.8701 22.0867C26.0829 21.6112 27.2805 21.0903 28.5161 20.6827C38.4761 17.4067 48.4512 14.1684 58.4112 10.8698C59.1692 10.6132 60.1849 10.6056 60.9884 9.36012H52.696C62.095 6.44644 71.4941 3.51767 80.916 0.649283C81.874 0.425446 82.8595 0.341534 83.8418 0.400184C106.46 0.400184 129.079 0.317152 151.69 0.400184C165.665 0.343421 179.477 3.39961 192.113 9.34502L186.004 9.73754L224.661 36.3682L214.891 35.7568C213.595 34.0735 211.624 33.2357 209.994 31.9826C188.77 15.429 164.666 8.21277 137.841 9.67715H90.9063C89.1695 9.44438 87.4022 9.61754 85.7444 10.1829C77.0578 12.7569 68.356 15.2856 59.6695 17.8672C58.9039 18.1162 57.8124 17.8219 57.5168 18.9843Z" fill="#EC4B42"/>
<path d="M26.3172 84.3457C26.7032 89.5641 28.0603 94.6654 30.3194 99.3896C24.8467 99.3896 19.374 99.3896 13.9013 99.4727C13.3699 99.5436 12.8292 99.4686 12.3376 99.2558C11.846 99.0429 11.4221 98.7003 11.1119 98.2649C7.72365 93.6076 4.28996 89.0181 0.818359 84.3985L26.3172 84.3457Z" fill="#BD4E44"/>
<path d="M300.589 99.4045C301.514 96.8154 303.014 94.415 303.212 91.5843C304.326 89.3198 304.288 86.7836 304.546 84.3379H323.442C323.48 88.6933 323.442 93.0563 323.594 97.4117C323.677 99.3214 322.836 99.4724 321.274 99.4573C314.377 99.4045 307.479 99.4271 300.589 99.4045Z" fill="#BD4E44"/>
<path d="M224.654 36.368L185.996 9.73724L192.105 9.34473C197.76 11.2243 202.642 14.5305 207.523 17.7989C216.945 24.0943 226.314 30.4727 235.698 36.8209C231.991 37.4625 228.353 36.149 224.654 36.368Z" fill="#757E6B"/>
<path d="M52.6957 9.34473H60.9881C60.1847 10.6204 59.1917 10.628 58.411 10.8544C48.451 14.138 38.4758 17.3762 28.5158 20.6673C27.2803 21.0749 26.0827 21.5958 24.8699 22.0713C18.8817 22.8865 12.8936 23.732 6.89791 24.4868C6.35973 24.5547 5.74576 24.0565 5.16211 23.815C12.5904 20.7956 20.3977 18.9236 28.0459 16.5836C36.2322 14.1002 44.3199 11.2394 52.6957 9.34473Z" fill="#4E5142"/>
<path d="M329.604 69.2488C324.132 69.2488 318.651 69.1281 313.186 69.3243C309.927 69.4375 311.193 67.2183 311.079 65.7992C310.965 64.3801 310.382 62.5157 313.239 62.6516C317.719 62.8629 322.214 62.6516 326.701 62.6516C331.605 62.7874 332.075 63.3234 331.484 67.6486C331.31 68.9243 330.772 69.3545 329.604 69.2488Z" fill="#ECEADF"/>
<path d="M7.87574 33.8848H11.9158V62.0252H7.86816C7.87827 52.64 7.8808 43.2599 7.87574 33.8848Z" fill="#BD4E44"/>
<path d="M78.5205 108.885C78.5379 108.686 78.6338 108.502 78.7872 108.373C78.9407 108.245 79.1392 108.182 79.3391 108.198L78.5205 108.885Z" fill="#2C3C2A"/>
<path d="M17.1459 47.6079C17.1459 43.9091 17.1459 40.2029 17.1459 36.5042C17.1459 35.5002 16.729 34.0283 18.3511 33.9453C19.8671 33.8622 21.7772 33.047 22.6868 35.1153C24.7561 39.7802 26.742 44.4828 28.7507 49.1704C28.8686 49.4734 28.9074 49.8013 28.8637 50.1233C28.8199 50.4454 28.695 50.7512 28.5006 51.0122C26.689 54.107 24.9077 57.217 23.1264 60.3344C22.8285 60.9069 22.3693 61.3803 21.8052 61.6967C21.241 62.0132 20.5965 62.1588 19.9504 62.1159C17.8736 62.1611 16.9943 61.5799 17.0777 59.3607C17.252 55.4506 17.1459 51.5255 17.1459 47.6079Z" fill="#BE4F44"/>
<path d="M11.916 62.0175V33.8771C16.5928 33.7865 16.5928 33.7865 16.5928 38.2778V57.6168C16.5928 62.1081 16.5928 62.1081 11.916 62.0175Z" fill="#F6766B"/>
<path d="M34.7764 63.1499C34.7764 63.8066 34.367 63.9651 33.8213 63.9953L34.7764 63.1499Z" fill="#2C3C2A"/>
<path d="M137.833 9.66194C164.658 8.19755 188.785 15.4138 209.986 31.9674C211.616 33.2355 213.587 34.0734 214.883 35.7416C199.2 35.7416 183.517 35.7945 167.834 35.7416C166.305 35.6338 164.785 35.4169 163.286 35.0925C155.176 26.2835 146.52 17.9652 137.833 9.66194Z" fill="#435040"/>
<path d="M137.833 9.66211C146.52 17.9653 155.176 26.2686 163.309 35.1304C153.472 34.0911 143.694 32.5543 134.013 30.5259L125.971 22.5699V9.66966L137.833 9.66211Z" fill="#707E6B"/>
<path d="M57.5166 18.984C57.8122 17.8215 58.9037 18.0857 59.6693 17.8593C68.3559 15.2777 77.0576 12.749 85.7442 10.175C87.4021 9.60966 89.1694 9.43651 90.9061 9.66928C96.4243 15.3004 101.937 20.9214 107.445 26.5324C98.1449 25.1661 88.8444 23.8376 79.5514 22.4336C72.1989 21.3315 64.8615 20.1389 57.5166 18.984Z" fill="#444F40"/>
<path d="M125.94 9.66943C125.94 13.972 125.94 18.2721 125.94 22.5696C125.94 24.1548 125.819 25.7399 125.857 27.3251C125.902 28.6536 125.364 29.3028 124.023 29.2726C120.098 29.0303 116.208 28.3981 112.41 27.3855C112.456 24.7738 112.504 22.1595 112.554 19.5427C112.595 16.2516 112.63 12.9605 112.66 9.66943H125.94Z" fill="#2C3C2A"/>
<path d="M112.585 19.5427C112.534 22.1595 112.486 24.7738 112.441 27.3855C110.734 27.448 109.034 27.1575 107.446 26.5325C101.932 20.9216 96.4194 15.3005 90.9062 9.66943H102.238C105.535 13.119 108.567 16.8404 112.585 19.5427Z" fill="#707E6B"/>
<path d="M124.053 29.2728C125.394 29.2728 125.933 28.6538 125.887 27.3253C125.849 25.7401 125.94 24.155 125.97 22.5698L134.013 30.5258C130.665 30.373 127.334 29.954 124.053 29.2728Z" fill="#444F40"/>
<path d="M112.585 19.5427C108.568 16.8404 105.536 13.119 102.238 9.66943H112.691C112.656 12.9605 112.62 16.2516 112.585 19.5427Z" fill="#435141"/>
<path d="M57.5164 117C75.957 117 90.9059 102.113 90.9059 83.7492C90.9059 65.3854 75.957 50.4985 57.5164 50.4985C39.0759 50.4985 24.127 65.3854 24.127 83.7492C24.127 102.113 39.0759 117 57.5164 117Z" fill="#19221A"/>
<path d="M57.516 102.53C67.9315 102.53 76.3748 94.1213 76.3748 83.7491C76.3748 73.377 67.9315 64.9688 57.516 64.9688C47.1006 64.9688 38.6572 73.377 38.6572 83.7491C38.6572 94.1213 47.1006 102.53 57.516 102.53Z" fill="#939493"/>
<path d="M271.694 117C290.135 117 305.084 102.113 305.084 83.7492C305.084 65.3854 290.135 50.4985 271.694 50.4985C253.254 50.4985 238.305 65.3854 238.305 83.7492C238.305 102.113 253.254 117 271.694 117Z" fill="#19221A"/>
<path d="M271.694 102.53C282.109 102.53 290.553 94.1213 290.553 83.7491C290.553 73.377 282.109 64.9688 271.694 64.9688C261.278 64.9688 252.835 73.377 252.835 83.7491C252.835 94.1213 261.278 102.53 271.694 102.53Z" fill="#939493"/>
</g>
<defs>
<clipPath id="clip0_438_2149">
<rect width="332" height="117" fill="white"/>
</clipPath>
</defs>
</svg>
