<svg width="21" height="21" viewBox="0 0 21 21" fill="none" xmlns="http://www.w3.org/2000/svg">
<path fill-rule="evenodd" clip-rule="evenodd" d="M0.866117 0.866117C1.35427 0.377961 2.14573 0.377961 2.63388 0.866117L10.5 8.73223L18.3661 0.866117C18.8543 0.377961 19.6457 0.377961 20.1339 0.866117C20.622 1.35427 20.622 2.14573 20.1339 2.63388L12.2678 10.5L20.1339 18.3661C20.622 18.8543 20.622 19.6457 20.1339 20.1339C19.6457 20.622 18.8543 20.622 18.3661 20.1339L10.5 12.2678L2.63388 20.1339C2.14573 20.622 1.35427 20.622 0.866117 20.1339C0.377961 19.6457 0.377961 18.8543 0.866117 18.3661L8.73223 10.5L0.866117 2.63388C0.377961 2.14573 0.377961 1.35427 0.866117 0.866117Z" fill="#777777"/>
</svg>
