<svg width="82" height="39" viewBox="0 0 82 39" fill="none" xmlns="http://www.w3.org/2000/svg">
<path d="M52.2549 23.1377V37.4657H16.358C12.2681 37.4657 8.94043 34.2518 8.94043 30.3017C8.94043 26.3515 12.2681 23.1377 16.358 23.1377H52.2549Z" fill="#F2F3F3"/>
<path d="M53.1357 37.3555C53.1357 37.5017 53.0776 37.6418 52.9742 37.7451C52.8709 37.8485 52.7308 37.9065 52.5846 37.9066H15.7177C13.7154 37.9066 11.7951 37.1112 10.3792 35.6953C8.96339 34.2795 8.16797 32.3592 8.16797 30.3569C8.16797 28.3545 8.96339 26.4342 10.3792 25.0184C11.7951 23.6025 13.7154 22.8071 15.7177 22.8071H52.5846C52.7308 22.8071 52.871 22.8652 52.9743 22.9685C53.0776 23.0719 53.1357 23.212 53.1357 23.3582C53.1357 23.5044 53.0776 23.6445 52.9743 23.7479C52.871 23.8512 52.7308 23.9093 52.5846 23.9093H15.7177C14.0077 23.9093 12.3677 24.5886 11.1586 25.7977C9.94941 27.0069 9.27012 28.6469 9.27012 30.3569C9.27012 32.0669 9.94941 33.7068 11.1586 34.916C12.3677 36.1251 14.0077 36.8044 15.7177 36.8044H52.5846C52.7308 36.8045 52.8709 36.8626 52.9742 36.9659C53.0776 37.0692 53.1357 37.2094 53.1357 37.3555Z" fill="#777777"/>
<path d="M52.2548 26.4446H13.6796C13.6503 26.4446 13.6223 26.4329 13.6016 26.4123C13.5809 26.3916 13.5693 26.3636 13.5693 26.3343C13.5693 26.3051 13.5809 26.2771 13.6016 26.2564C13.6223 26.2357 13.6503 26.2241 13.6796 26.2241H52.2548C52.284 26.2241 52.3121 26.2357 52.3328 26.2564C52.3534 26.2771 52.365 26.3051 52.365 26.3343C52.365 26.3636 52.3534 26.3916 52.3328 26.4123C52.3121 26.4329 52.284 26.4446 52.2548 26.4446Z" fill="#D3D3D3"/>
<path d="M52.2548 29.0896H13.6796C13.6503 29.0896 13.6223 29.078 13.6016 29.0573C13.5809 29.0366 13.5693 29.0086 13.5693 28.9794C13.5693 28.9501 13.5809 28.9221 13.6016 28.9014C13.6223 28.8808 13.6503 28.8691 13.6796 28.8691H52.2548C52.284 28.8691 52.3121 28.8808 52.3328 28.9014C52.3534 28.9221 52.365 28.9501 52.365 28.9794C52.365 29.0086 52.3534 29.0366 52.3328 29.0573C52.3121 29.078 52.284 29.0896 52.2548 29.0896Z" fill="#D3D3D3"/>
<path d="M52.2548 31.7346H13.6796C13.6503 31.7346 13.6223 31.723 13.6016 31.7023C13.5809 31.6816 13.5693 31.6536 13.5693 31.6244C13.5693 31.5951 13.5809 31.5671 13.6016 31.5464C13.6223 31.5258 13.6503 31.5142 13.6796 31.5142H52.2548C52.284 31.5142 52.3121 31.5258 52.3328 31.5464C52.3534 31.5671 52.365 31.5951 52.365 31.6244C52.365 31.6536 52.3534 31.6816 52.3328 31.7023C52.3121 31.723 52.284 31.7346 52.2548 31.7346Z" fill="#D3D3D3"/>
<path d="M52.2548 34.3796H13.6796C13.6503 34.3796 13.6223 34.368 13.6016 34.3473C13.5809 34.3267 13.5693 34.2986 13.5693 34.2694C13.5693 34.2402 13.5809 34.2121 13.6016 34.1915C13.6223 34.1708 13.6503 34.1592 13.6796 34.1592H52.2548C52.284 34.1592 52.3121 34.1708 52.3328 34.1915C52.3534 34.2121 52.365 34.2402 52.365 34.2694C52.365 34.2986 52.3534 34.3267 52.3328 34.3473C52.3121 34.368 52.284 34.3796 52.2548 34.3796Z" fill="#D3D3D3"/>
<path d="M79.9973 25.8351L71.0076 36.992L43.0554 14.4695C39.8706 11.9034 39.2959 7.31301 41.7743 4.23713C44.2527 1.16125 48.8603 0.746509 52.0451 3.31265L79.9973 25.8351Z" fill="#F2F3F3"/>
<path d="M71.7641 37.4592C71.6723 37.573 71.5392 37.6457 71.3939 37.6613C71.2486 37.6769 71.103 37.6342 70.9892 37.5426L42.2817 14.4115C40.7225 13.1552 39.7262 11.331 39.5121 9.34016C39.2979 7.34933 39.8834 5.35497 41.1397 3.79581C42.396 2.23665 44.2202 1.2404 46.211 1.02624C48.2018 0.812082 50.1962 1.39755 51.7554 2.65384L80.4629 25.7849C80.5193 25.8303 80.5662 25.8864 80.6009 25.9499C80.6357 26.0134 80.6575 26.0832 80.6653 26.1551C80.6731 26.2271 80.6666 26.2999 80.6462 26.3694C80.6258 26.4389 80.5919 26.5036 80.5465 26.56C80.5011 26.6164 80.445 26.6632 80.3815 26.6979C80.3179 26.7326 80.2482 26.7545 80.1762 26.7622C80.1042 26.7699 80.0314 26.7634 79.962 26.7429C79.8925 26.7225 79.8278 26.6886 79.7714 26.6432L51.0639 3.51207C50.4046 2.98043 49.647 2.58389 48.8345 2.34509C48.0219 2.1063 47.1703 2.02993 46.3282 2.12034C45.4861 2.21076 44.6701 2.4662 43.9267 2.87206C43.1834 3.27791 42.5273 3.82625 41.9959 4.48573C41.4646 5.14521 41.0683 5.90292 40.8298 6.71557C40.5914 7.52823 40.5153 8.3799 40.6061 9.22195C40.6968 10.064 40.9526 10.8799 41.3587 11.6231C41.7649 12.3663 42.3135 13.0222 42.9732 13.5533L71.6807 36.6844C71.7945 36.7761 71.8671 36.9092 71.8828 37.0545C71.8984 37.1998 71.8557 37.3454 71.7641 37.4592Z" fill="#D3D3D3"/>
<path d="M77.9226 28.4097L47.8848 4.20678C47.8735 4.1977 47.8642 4.18648 47.8572 4.17378C47.8503 4.16108 47.8459 4.14713 47.8444 4.13274C47.8428 4.11835 47.8441 4.1038 47.8482 4.08991C47.8523 4.07602 47.8591 4.06307 47.8681 4.0518C47.8772 4.04053 47.8884 4.03116 47.9011 4.02423C47.9138 4.01729 47.9278 4.01292 47.9422 4.01137C47.9566 4.00983 47.9711 4.01113 47.985 4.0152C47.9989 4.01928 48.0118 4.02605 48.0231 4.03513L78.0609 28.2381C78.0722 28.2471 78.0816 28.2584 78.0886 28.2711C78.0955 28.2838 78.0999 28.2977 78.1014 28.3121C78.103 28.3265 78.1017 28.3411 78.0976 28.355C78.0936 28.3689 78.0868 28.3819 78.0777 28.3931C78.0686 28.4044 78.0574 28.4138 78.0447 28.4207C78.032 28.4277 78.018 28.432 78.0036 28.4336C77.9892 28.4351 77.9746 28.4338 77.9607 28.4297C77.9468 28.4256 77.9339 28.4188 77.9226 28.4097Z" fill="#D3D3D3"/>
<path d="M76.2633 30.4692L46.2255 6.26626C46.2028 6.24791 46.1883 6.22128 46.1852 6.19224C46.1821 6.1632 46.1906 6.13412 46.209 6.11138C46.2273 6.08863 46.2539 6.07409 46.2829 6.07095C46.312 6.06781 46.3411 6.07632 46.3638 6.09462L76.4016 30.2975C76.4129 30.3066 76.4223 30.3178 76.4293 30.3305C76.4362 30.3432 76.4406 30.3572 76.4422 30.3716C76.4437 30.386 76.4424 30.4006 76.4384 30.4145C76.4343 30.4284 76.4275 30.4413 76.4184 30.4526C76.4093 30.4639 76.3981 30.4733 76.3854 30.4802C76.3727 30.4871 76.3587 30.4915 76.3443 30.493C76.3299 30.4946 76.3153 30.4933 76.3014 30.4892C76.2875 30.4851 76.2746 30.4783 76.2633 30.4692Z" fill="#D3D3D3"/>
<path d="M74.6033 32.5289L44.5655 8.32592C44.5427 8.30758 44.5282 8.28095 44.525 8.25189C44.5219 8.22282 44.5305 8.19371 44.5488 8.17095C44.5671 8.14819 44.5938 8.13364 44.6228 8.13052C44.6519 8.12739 44.681 8.13594 44.7038 8.15428L74.7416 32.3572C74.7528 32.3663 74.7622 32.3775 74.7692 32.3902C74.7761 32.4029 74.7805 32.4169 74.782 32.4312C74.7836 32.4456 74.7823 32.4602 74.7782 32.4741C74.7741 32.488 74.7673 32.5009 74.7582 32.5122C74.7492 32.5235 74.738 32.5328 74.7253 32.5398C74.7126 32.5467 74.6986 32.5511 74.6842 32.5526C74.6698 32.5542 74.6553 32.5529 74.6414 32.5488C74.6275 32.5447 74.6145 32.5379 74.6033 32.5289Z" fill="#D3D3D3"/>
<path d="M72.9441 34.5889L42.9063 10.386C42.895 10.3769 42.8857 10.3657 42.8787 10.353C42.8718 10.3403 42.8674 10.3263 42.8659 10.3119C42.8643 10.2976 42.8656 10.283 42.8697 10.2691C42.8738 10.2552 42.8806 10.2423 42.8896 10.231C42.8987 10.2197 42.9099 10.2104 42.9226 10.2034C42.9353 10.1965 42.9493 10.1921 42.9637 10.1906C42.9781 10.189 42.9926 10.1903 43.0065 10.1944C43.0204 10.1985 43.0333 10.2053 43.0446 10.2143L73.0824 34.4173C73.0937 34.4263 73.1031 34.4375 73.11 34.4502C73.117 34.463 73.1214 34.4769 73.1229 34.4913C73.1245 34.5057 73.1232 34.5203 73.1191 34.5342C73.1151 34.5481 73.1083 34.561 73.0992 34.5723C73.0901 34.5836 73.0789 34.593 73.0662 34.5999C73.0534 34.6069 73.0395 34.6112 73.0251 34.6128C73.0107 34.6143 72.9961 34.613 72.9822 34.6089C72.9683 34.6048 72.9554 34.598 72.9441 34.5889Z" fill="#D3D3D3"/>
<path d="M81.8898 38.0168H0.110215C0.0809842 38.0168 0.0529505 38.0052 0.0322812 37.9845C0.0116118 37.9639 0 37.9358 0 37.9066C0 37.8774 0.0116118 37.8493 0.0322812 37.8287C0.0529505 37.808 0.0809842 37.7964 0.110215 37.7964H81.8898C81.919 37.7964 81.947 37.808 81.9677 37.8287C81.9884 37.8493 82 37.8774 82 37.9066C82 37.9358 81.9884 37.9639 81.9677 37.9845C81.947 38.0052 81.919 38.0168 81.8898 38.0168Z" fill="#D3D3D3"/>
</svg>
