<svg width="21" height="24" viewBox="0 0 21 24" fill="none" xmlns="http://www.w3.org/2000/svg">
<path d="M19.7808 18.424C19.433 19.2275 19.0213 19.9672 18.5442 20.6472C17.894 21.5743 17.3616 22.216 16.9513 22.5724C16.3153 23.1573 15.6338 23.4568 14.9041 23.4739C14.3802 23.4739 13.7485 23.3248 13.013 23.0224C12.2752 22.7214 11.5972 22.5724 10.9772 22.5724C10.327 22.5724 9.62959 22.7214 8.88368 23.0224C8.13662 23.3248 7.53481 23.4824 7.07468 23.498C6.37491 23.5278 5.6774 23.2197 4.98118 22.5724C4.53681 22.1848 3.98099 21.5204 3.31515 20.5791C2.60075 19.5739 2.01342 18.4084 1.55329 17.0795C1.06051 15.6442 0.813477 14.2543 0.813477 12.9087C0.813477 11.3673 1.14654 10.0379 1.81366 8.92385C2.33796 8.029 3.03546 7.32312 3.90844 6.80493C4.78142 6.28674 5.72468 6.02267 6.74048 6.00578C7.2963 6.00578 8.02518 6.1777 8.93095 6.51559C9.83417 6.85462 10.4141 7.02655 10.6684 7.02655C10.8585 7.02655 11.5028 6.82552 12.5949 6.42473C13.6278 6.05305 14.4995 5.89916 15.2136 5.95978C17.1487 6.11595 18.6024 6.87876 19.5693 8.25303C17.8386 9.30163 16.9826 10.7703 16.9996 12.6544C17.0152 14.122 17.5476 15.3432 18.5939 16.3129C19.0681 16.7629 19.5977 17.1107 20.1868 17.3578C20.0591 17.7283 19.9242 18.0832 19.7808 18.424ZM15.3428 0.960131C15.3428 2.11039 14.9226 3.18439 14.0849 4.17847C13.0741 5.36023 11.8514 6.04311 10.5256 5.93536C10.5087 5.79736 10.4989 5.65213 10.4989 5.49951C10.4989 4.39526 10.9796 3.21349 11.8333 2.24724C12.2595 1.75801 12.8015 1.35122 13.4588 1.02671C14.1147 0.707053 14.7352 0.530273 15.3187 0.5C15.3357 0.653772 15.3428 0.807554 15.3428 0.960116V0.960131Z" fill="white"/>
</svg>
