<svg width="33" height="28" viewBox="0 0 33 28" fill="none" xmlns="http://www.w3.org/2000/svg">
<path d="M0.5 14C0.5 13.1503 1.18879 12.4615 2.03846 12.4615H27.3145L18.1673 3.07365C17.5744 2.46509 17.587 1.49107 18.1956 0.89812C18.8041 0.305164 19.7782 0.317814 20.3711 0.926372L32.0598 12.9227C32.3529 13.2211 32.5 13.6104 32.5 14C32.5 14.3897 32.3528 14.779 32.0597 15.0775L20.3711 27.0736C19.7782 27.6822 18.8041 27.6949 18.1956 27.1019C17.587 26.5089 17.5744 25.5349 18.1673 24.9264L27.3145 15.5385H2.03846C1.18879 15.5385 0.5 14.8497 0.5 14Z" fill="#2B472C"/>
</svg>
