    <svg width="512" height="512" viewBox="0 0 512 512" fill="none" xmlns="http://www.w3.org/2000/svg">
<g clip-path="url(#clip0_386_3797)">
<g clip-path="url(#clip1_386_3797)">
<path d="M90.9152 450.841C65.8651 450.902 40.7539 451.085 15.7038 450.902C7.15006 450.841 1.16247 444.181 1.10137 435.2C1.04028 415.588 1.10137 396.036 1.10137 376.424C1.10137 328.279 1.10137 280.134 1.10137 231.989C1.10137 230.156 1.22357 228.323 1.28467 226.551C31.1615 226.551 61.0384 226.551 90.9152 226.49C90.9152 282.333 90.9763 338.177 90.9763 393.959C81.6894 395.12 76.0684 400.619 75.9462 408.806C75.824 417.176 81.4451 422.919 90.9763 424.141C90.9152 433.062 90.9152 441.982 90.9152 450.841Z" fill="#3E5959"/>
<path d="M124.464 226.612C124.464 260.949 124.525 295.347 124.525 329.684C124.525 348.502 135.181 357.743 153.999 357.743C162.797 357.743 171.929 357.743 180.727 357.743C180.727 382.121 180.666 410.028 180.666 434.406C180.666 445.098 174.801 450.963 164.108 450.963C139.73 450.902 115.291 450.841 90.9132 450.78C90.9132 441.921 90.9132 433.001 90.9132 424.141L90.791 423.958C99.5891 423.958 105.393 417.848 105.943 409.111C106.371 401.841 98.6726 393.043 90.791 394.265L90.9132 394.081C90.9132 338.238 90.8521 282.394 90.8521 226.612C101.483 226.551 113.833 226.612 124.464 226.612Z" fill="#293939"/>
<path d="M1.2844 166.675C1.2233 146.635 1.04 126.534 1.1622 106.494C1.2233 98.3675 7.63857 91.9522 15.8257 91.9522C40.8758 91.83 65.8648 92.0133 90.915 92.0744C90.915 116.941 90.9149 141.869 90.8539 166.736C60.977 166.675 31.1612 166.675 1.2844 166.675Z" fill="#3E5959"/>
<path d="M1.2832 166.675C31.1601 166.675 61.0369 166.675 90.9138 166.736C90.9138 186.715 90.9138 206.633 90.9138 226.612C61.0369 226.612 31.1601 226.612 1.2832 226.673C1.2832 206.633 1.2832 186.654 1.2832 166.675Z" fill="#547982"/>
<path d="M257.404 361.272C277.383 361.21 297.301 361.211 317.28 361.149C317.28 373.724 317.28 422.149 317.28 422.149C297.301 422.088 277.383 422.088 257.404 422.027C257.404 402.109 257.404 381.189 257.404 361.272Z" fill="#3E5959"/>
<path d="M317.195 422.821V360.747L377.28 361.272V422.821C357.363 422.76 337.174 422.821 317.195 422.821Z" fill="#3E5959"/>
<path d="M318.196 421.319C338.175 421.319 357.3 421.087 377.279 421.087C387.422 421.087 397.564 421.025 407.706 421.148C415.832 421.27 422.003 427.746 422.125 435.872C422.186 444.059 416.138 450.963 408.134 450.963C377.89 451.025 348.439 450.915 318.195 450.854L318.196 421.319Z" fill="#547983"/>
<path d="M318.196 421.32V450.855C288.197 450.916 257.406 451.025 227.407 450.964C219.036 450.964 212.621 444.06 212.621 435.934C212.682 427.808 219.159 421.27 227.59 421.087C237.549 420.904 247.508 421.026 257.406 421.026C277.324 421.087 298.217 421.32 318.196 421.32Z" fill="#547983"/>
<path d="M90.8516 166.675C90.8516 141.808 90.8516 116.88 90.9127 92.0134C101.544 91.9523 116.898 91.8912 127.529 91.769C127.529 116.697 127.467 141.625 127.467 166.614C116.836 166.675 101.483 166.675 90.8516 166.675Z" fill="#293939"/>
<path d="M495.407 330.512C495.407 335.44 493.787 336.218 489.446 336.218C435.346 336.088 381.181 336.088 327.08 336.153C315.373 336.153 303.561 336.088 291.64 336.088C245.25 336.088 198.924 336.023 152.534 336.218C147.675 336.218 145.99 335.375 145.99 329.993C145.99 329.085 145.99 328.177 145.99 327.27C145.99 321.888 145.99 316.441 145.99 311.06C145.99 308.272 145.99 305.419 145.99 302.63C145.99 286.809 146.055 271.053 146.055 255.232C146.055 250.369 146.055 245.441 146.055 240.578C146.055 218.598 146.055 196.552 146.055 174.571C146.055 145.782 145.99 116.993 145.99 88.204C145.99 83.6004 146.897 81.9794 151.951 81.9794C180.783 82.1091 209.615 82.1091 238.447 82.1091C260.475 82.1091 282.44 82.1091 304.404 82.1091H315.872C319.564 82.1091 323.256 82.0442 326.951 82.0442C340.103 82.0442 353.256 82.0442 366.408 82.0442H374.831C380.209 82.0442 385.651 82.0442 391.029 82.0442C423.813 82.0442 456.597 82.0442 489.381 81.9146C493.787 81.9146 495.407 82.6278 495.342 87.5556C495.212 168.541 495.212 249.526 495.407 330.512Z" fill="#19BFEE"/>
<path d="M90.8516 166.675C101.483 166.675 116.336 166.614 126.967 166.614C126.967 186.593 126.967 206.633 126.967 226.612C116.336 226.612 101.483 226.551 90.8516 226.551C90.8516 206.633 90.8516 186.654 90.8516 166.675Z" fill="#3E5959"/>
<path d="M302.067 91.8911L152.744 241.214C152.744 220.502 152.744 199.729 152.744 179.017L239.87 91.8911C260.582 91.8911 281.355 91.8911 302.067 91.8911Z" fill="#58D6F4"/>
<path d="M360.477 91.8911L152.684 299.685C152.684 284.777 152.745 269.93 152.745 255.022L315.815 91.9522C330.697 91.9522 345.59 91.8911 360.477 91.8911Z" fill="#58D6F4"/>
<path d="M383.695 91.8911L152.623 322.963C152.623 317.892 152.623 312.76 152.623 307.689L368.421 91.8911C373.553 91.8911 378.624 91.8911 383.695 91.8911Z" fill="#58D6F4"/>
<path d="M317.403 62.137C317.403 71.9737 317.403 81.8716 317.342 91.7083V91.9268C317.342 91.9268 314.348 91.9527 312.882 91.9527C261.377 91.9527 209.81 92.0138 158.305 91.8305C153.539 91.8305 152.684 93.358 152.684 97.6959C152.806 173.641 152.806 249.646 152.622 325.591C152.622 330.662 154.424 331.212 159.006 331.212C159.006 331.212 246.224 331.395 289.97 331.334C289.97 331.334 308.239 331.273 317.403 331.212V331.578C317.403 341.476 317.342 351.374 317.342 361.211C297.363 361.272 277.445 361.272 257.466 361.333C231.927 361.333 206.327 361.333 180.789 361.333C171.99 361.333 163.192 361.333 154.394 361.333C135.576 361.333 122.868 348.625 122.868 329.807C122.807 295.47 122.807 261.072 122.807 226.735C122.807 206.756 122.807 186.715 122.807 166.736C122.807 141.809 122.868 116.881 122.868 91.9527C123.723 74.7231 136.004 62.137 152.622 62.137C207.061 62.0148 261.499 62.0759 315.937 62.137H317.403Z" fill="#547983"/>
<path d="M317.194 62.137L317.194 90.9257V91.9268C317.194 91.9268 320.249 91.9527 321.716 91.9527C373.221 91.9527 424.788 92.0138 476.293 91.8305C481.059 91.8305 481.914 93.358 481.914 97.6959C481.792 173.641 481.792 249.646 481.975 325.591C481.975 330.662 480.465 331.212 475.883 331.212C432.137 331.029 344.727 331.212 344.727 331.212H317.194L317.194 331.578C317.194 341.476 317.255 351.374 317.255 361.211C337.234 361.272 357.152 361.272 377.131 361.333C402.67 361.333 428.27 361.333 453.809 361.333C462.607 361.333 471.405 361.333 480.203 361.333C499.022 361.333 511.73 348.625 511.73 329.807C511.791 295.47 511.791 261.072 511.791 226.735C511.791 206.756 511.791 186.715 511.791 166.736C511.791 141.809 511.73 116.881 511.73 91.9527C510.875 74.7231 498.594 62.137 481.975 62.137C427.537 62.0148 373.099 62.0759 318.661 62.137H317.194Z" fill="#547983"/>
<path d="M71.9023 409.305C71.9023 419.811 80.4191 428.328 90.925 428.328V390.282C80.4191 390.282 71.9023 398.799 71.9023 409.305Z" fill="#7FE584"/>
<path d="M71.9023 409.305C71.9023 419.811 80.4191 428.328 90.925 428.328V390.282C80.4191 390.282 71.9023 398.799 71.9023 409.305Z" fill="#7FE584"/>
<path d="M109.947 409.305C109.947 419.811 101.431 428.328 90.9246 428.328V390.282C101.431 390.282 109.947 398.799 109.947 409.305Z" fill="#5CC781"/>
</g>
</g>
<defs>
<clipPath id="clip0_386_3797">
<rect width="512" height="512" fill="white"/>
</clipPath>
<clipPath id="clip1_386_3797">
<rect width="511.817" height="511.39" fill="white" transform="translate(0.183594 0.183105)"/>
</clipPath>
</defs>
</svg>
