<svg width="25" height="25" viewBox="0 0 25 25" fill="none" xmlns="http://www.w3.org/2000/svg">
<path d="M11.3787 7.7054L11.6 7.69923H20.6C22.6796 7.69923 24.3791 9.32697 24.4938 11.3779L24.5 11.5992V20.5992C24.5 22.6789 22.8723 24.3783 20.8213 24.4931L20.6 24.4992H11.6C9.52036 24.4992 7.82091 22.8715 7.70617 20.8205L7.7 20.5992V11.5992C7.7 9.51959 9.32775 7.82013 11.3787 7.7054ZM20.6 9.49923H11.6C10.4982 9.49923 9.59457 10.3478 9.50696 11.427L9.5 11.5992V20.5992C9.5 21.701 10.3485 22.6047 11.4278 22.6923L11.6 22.6992H20.6C21.7018 22.6992 22.6054 21.8507 22.693 20.7715L22.7 20.5992V11.5992C22.7 10.4394 21.7598 9.49923 20.6 9.49923ZM16.1 11.3007C16.5971 11.3007 17 11.7037 17 12.2007V15.1983L20 15.1992C20.4971 15.1992 20.9 15.6022 20.9 16.0992C20.9 16.5963 20.4971 16.9992 20 16.9992L17 16.9983V20.0007C17 20.4978 16.5971 20.9007 16.1 20.9007C15.6029 20.9007 15.2 20.4978 15.2 20.0007V16.9983L12.2 16.9992C11.7029 16.9992 11.3 16.5963 11.3 16.0992C11.3 15.6022 11.7029 15.1992 12.2 15.1992L15.2 15.1983V12.2007C15.2 11.7037 15.6029 11.3007 16.1 11.3007ZM16.7982 3.18014L16.8614 3.39231L17.6924 6.49833H15.8288L15.1227 3.85818C14.8226 2.7379 13.6711 2.07308 12.5508 2.37326L3.85745 4.70263C2.79613 4.98701 2.14359 6.03546 2.33307 7.09757L2.37252 7.27459L4.7019 15.9679C4.93247 16.8284 5.66534 17.4202 6.50054 17.5124L6.50067 19.3187C4.93919 19.2268 3.53554 18.1941 3.02647 16.646L2.96323 16.4338L0.633857 7.74047C0.0956073 5.73169 1.22804 3.66885 3.1794 3.0272L3.39157 2.96396L12.0849 0.63459C14.0937 0.0963398 16.1565 1.22877 16.7982 3.18014Z" fill="#333333"/>
</svg>
