<svg width="24" height="22" viewBox="0 0 24 22" fill="none" xmlns="http://www.w3.org/2000/svg">
<path d="M12.395 0.902191C13.1932 0.153601 14.5 0.719621 14.5 1.814V20.1841C14.5 21.2782 13.1937 21.8443 12.3953 21.0962L7.45832 16.4701C7.134 16.1662 6.70619 15.997 6.26174 15.997H3.25C1.45507 15.997 0 14.542 0 12.747V9.255C0 7.4601 1.45508 6.00505 3.25 6.00505H6.26119C6.70587 6.00505 7.13388 5.83576 7.45826 5.53158L12.395 0.902191ZM19.6436 2.18413C19.9546 1.91055 20.4285 1.94089 20.702 2.25191C22.7544 4.58512 24 7.6479 24 10.9997C24 14.3515 22.7544 17.4142 20.702 19.7474C20.4285 20.0584 19.9546 20.0888 19.6436 19.8152C19.3325 19.5416 19.3022 19.0677 19.5758 18.7567C21.3966 16.6868 22.5 13.973 22.5 10.9997C22.5 8.0263 21.3966 5.31254 19.5758 3.24262C19.3022 2.93161 19.3325 2.45771 19.6436 2.18413ZM18.3528 5.30256C18.1042 4.97126 17.6341 4.90424 17.3028 5.15286C16.9715 5.40148 16.9044 5.8716 17.1531 6.2029C18.156 7.5394 18.75 9.1991 18.75 10.9997C18.75 12.8003 18.156 14.4599 17.1531 15.7965C16.9044 16.1278 16.9715 16.5979 17.3028 16.8465C17.6341 17.0951 18.1042 17.0281 18.3528 16.6968C19.544 15.1095 20.25 13.136 20.25 10.9997C20.25 8.8634 19.544 6.88982 18.3528 5.30256Z" fill="white"/>
</svg>
