<svg width="13" height="18" viewBox="0 0 13 18" fill="none" xmlns="http://www.w3.org/2000/svg">
<path d="M6.792 0.92C7.896 0.92 8.856 1.088 9.672 1.424C10.504 1.76 11.152 2.248 11.616 2.888C12.096 3.512 12.336 4.28 12.336 5.192C12.336 6.136 12.128 6.92 11.712 7.544C11.312 8.152 10.768 8.616 10.08 8.936C9.392 9.24 8.632 9.44 7.8 9.536L7.728 11.96H5.256V8.336C6.392 8.192 7.272 8 7.896 7.76C8.52 7.52 8.96 7.224 9.216 6.872C9.472 6.504 9.6 6.064 9.6 5.552C9.6 5.056 9.488 4.632 9.264 4.28C9.056 3.912 8.728 3.64 8.28 3.464C7.848 3.272 7.296 3.176 6.624 3.176C5.68 3.176 4.912 3.44 4.32 3.968C3.728 4.496 3.376 5.232 3.264 6.176L0.888 5.096C1.064 4.264 1.408 3.536 1.92 2.912C2.432 2.288 3.096 1.8 3.912 1.448C4.728 1.096 5.688 0.92 6.792 0.92ZM6.48 13.832C7.024 13.832 7.456 13.992 7.776 14.312C8.112 14.616 8.28 15.024 8.28 15.536C8.28 16.048 8.112 16.456 7.776 16.76C7.456 17.064 7.024 17.216 6.48 17.216C5.952 17.216 5.52 17.064 5.184 16.76C4.864 16.456 4.704 16.048 4.704 15.536C4.704 15.024 4.864 14.616 5.184 14.312C5.52 13.992 5.952 13.832 6.48 13.832Z" fill="#333333"/>
</svg>
