<svg width="56" height="37" viewBox="0 0 56 37" fill="none" xmlns="http://www.w3.org/2000/svg">
<path d="M28.1779 36.7037C22.2659 36.6649 16.4279 35.3863 11.0409 32.9504C10.7202 32.8075 10.4481 32.5744 10.2575 32.2795C10.067 31.9847 9.96631 31.6407 9.96779 31.2897L9.96779 16.5525C9.96832 16.0697 10.1604 15.6068 10.5017 15.2654C10.8431 14.924 11.306 14.732 11.7888 14.7314L44.567 14.7314C45.0498 14.732 45.5127 14.924 45.854 15.2654C46.1954 15.6068 46.3875 16.0697 46.388 16.5525V31.2897C46.3895 31.6408 46.2888 31.9847 46.0983 32.2796C45.9077 32.5744 45.6355 32.8075 45.3149 32.9505C39.9279 35.3863 34.0898 36.6649 28.1779 36.7037Z" fill="#65BD69"/>
<path d="M28.1738 24.765C27.9308 24.7653 27.6902 24.7169 27.4662 24.6228L1.47348 13.6564C1.13829 13.515 0.853133 13.2764 0.654786 12.9715C0.456439 12.6665 0.353991 12.3091 0.360657 11.9454C0.367323 11.5816 0.482804 11.2282 0.692193 10.9307C0.901581 10.6332 1.19528 10.4052 1.53543 10.2762L27.5284 0.415341C27.9471 0.255787 28.41 0.256772 28.828 0.418108L54.4727 10.2789C54.8109 10.409 55.1026 10.637 55.3105 10.9338C55.5184 11.2306 55.6331 11.5827 55.6398 11.945C55.6465 12.3073 55.5449 12.6634 55.3481 12.9677C55.1513 13.2719 54.8682 13.5106 54.535 13.653L28.89 24.6192C28.6636 24.7157 28.4199 24.7653 28.1738 24.765Z" fill="#65BD69"/>
<path d="M13.0032 33.9532C14.3442 33.9532 15.4312 32.8661 15.4312 31.5252C15.4312 30.1842 14.3442 29.0972 13.0032 29.0972C11.6623 29.0972 10.5752 30.1842 10.5752 31.5252C10.5752 32.8661 11.6623 33.9532 13.0032 33.9532Z" fill="#3F3D56"/>
<path opacity="0.2" d="M54.6231 12.0965L28.978 23.0627C28.7781 23.1482 28.563 23.1926 28.3455 23.1931C28.1281 23.1936 27.9128 23.1503 27.7124 23.0658L1.71976 12.0997C1.39333 11.9653 1.121 11.7259 0.94579 11.4195C0.831176 11.6182 0.760159 11.8391 0.737442 12.0673C0.714724 12.2956 0.740833 12.5262 0.814033 12.7436C0.887234 12.961 1.00585 13.1604 1.16201 13.3285C1.31816 13.4965 1.50829 13.6295 1.71976 13.7184L27.7124 24.6845C27.9128 24.769 28.1281 24.8123 28.3455 24.8118C28.563 24.8112 28.7781 24.7669 28.978 24.6814L54.6231 13.7152C54.8335 13.6255 55.0225 13.4921 55.1776 13.324C55.3326 13.1558 55.4503 12.9567 55.5227 12.7397C55.5952 12.5228 55.6208 12.2929 55.5979 12.0653C55.575 11.8377 55.504 11.6176 55.3898 11.4194C55.2158 11.7235 54.9463 11.9615 54.6231 12.0965Z" fill="black"/>
<path d="M13.2074 31.5159C13.3147 31.5159 13.4177 31.4732 13.4936 31.3974C13.5694 31.3215 13.6121 31.2185 13.6121 31.1112L13.6121 17.5704L26.9585 12.7083C27.0659 12.7099 27.1694 12.6688 27.2464 12.594C27.3235 12.5192 27.3676 12.4169 27.3692 12.3096C27.3708 12.2023 27.3297 12.0987 27.255 12.0217C27.1802 11.9447 27.0779 11.9005 26.9706 11.8989L13.6241 16.7611C13.5167 16.7586 13.4099 16.778 13.3102 16.818C13.2105 16.858 13.12 16.9178 13.0441 16.9938C12.9674 17.069 12.9065 17.1587 12.8651 17.2577C12.8236 17.3567 12.8024 17.4631 12.8027 17.5704L12.8027 31.1112C12.8027 31.2185 12.8454 31.3215 12.9213 31.3973C12.9972 31.4732 13.1001 31.5159 13.2074 31.5159Z" fill="#3F3D56"/>
</svg>
