<svg width="64" height="64" viewBox="0 0 64 64" fill="none" xmlns="http://www.w3.org/2000/svg">
<path d="M44.9548 55.1413C44.9548 55.1413 44.1018 36.2271 41.1165 22.3567C51.352 36.2271 50.1114 35.6168 54.8027 48.6466H63.2935C60.361 35.6168 56.0433 26.9802 52.6315 20.6754C50.1506 16.0911 47.0873 7.64564 40.2636 10.1675C33.4399 12.6894 31.734 11.7149 24.9103 10.0336C18.0866 8.35237 15.1012 13.5301 12.1157 17.7332C8.90598 22.2522 5.29216 34.8319 1.02734 52.4853H8.70401C8.70401 44.997 18.513 25.2989 21.9248 21.5161C20.2189 33.7052 18.2287 41.9715 18.513 55.1413C18.513 55.1413 24.0572 57.5858 31.7339 55.4842C39.4105 53.3826 44.9548 55.1413 44.9548 55.1413Z" fill="#CD5757"/>
<path d="M40.2636 10.1675C40.69 3.72867 37.2781 6.67082 32.5868 6.67088C27.8956 6.67094 26.6161 4.01512 24.9103 10.0336C31.734 11.7149 33.4399 12.6894 40.2636 10.1675Z" fill="#882828"/>
<path fill-rule="evenodd" clip-rule="evenodd" d="M30.1412 35.9209C29.7545 27.5651 30.4036 24.8052 31.0968 12.2917H32.1581C31.4677 24.7539 32.3892 29.3038 32.7754 37.6114C32.9785 41.9806 32.7753 50.9647 32.7753 54.9383H31.7213C31.7213 51.0759 30.3422 40.2647 30.1412 35.9209Z" fill="white"/>
<path fill-rule="evenodd" clip-rule="evenodd" d="M30.8488 35.9206C30.4621 27.5649 30.4121 24.8047 31.1053 12.2913L32.1583 12.2916C31.4679 24.7538 33.0969 29.3036 33.4831 37.6111C33.6862 41.9804 34.5371 50.9644 34.5371 54.938H33.4831C33.4831 51.0757 31.0498 40.2644 30.8488 35.9206Z" fill="#3F3F3F"/>
<path fill-rule="evenodd" clip-rule="evenodd" d="M17.7558 55.5762L17.761 55.5784C26.8524 60.1819 37.1122 53.1906 45.603 56.3367C46.3106 43.4029 42.5322 29.8229 41.3576 23.4778C46.6765 30.7839 51.0106 36.7611 53.664 48.6759C56.5705 48.2967 62.9386 51.0932 64 48.6759C60.1084 36.4116 50.376 5.3044 39.5438 9.30777C34.4406 11.1938 29.7019 10.405 24.6095 9.15033C10.2245 5.60622 3.85639 39.2081 0 52.7136C0.766104 53.6725 8.93961 53.9891 8.93961 52.2804C11.6398 39.5576 17.7966 28.8534 21.192 23.4778C20.6376 27.1895 16.9466 49.3454 17.7558 55.5762ZM40.0395 10.6174C34.4121 11.8194 37.1125 13.3406 24.2671 10.507C11.4218 7.67346 3.14882 48.9959 1.3799 52.2804C3.85639 52.7136 6.68667 52.4915 7.54782 51.5813C8.80938 47.5976 11.6398 32.2168 22.2534 21.0308C20.7897 31.6832 18.5259 43.4992 18.7155 54.2392C24.0221 57.3854 28.0155 55.3413 32.513 54.5889C36.3789 53.9421 40.6938 53.7743 44.5417 54.5889C43.9552 43.7586 42.0048 31.0447 40.0395 20.3318C44.5789 25.792 53.664 38.1595 54.8304 47.7425C56.5704 47.7425 60.1082 48.9959 62.5847 48.2968C61.9561 43.0236 50.2024 8.44661 40.0395 10.6174Z" fill="#3F3F3F"/>
</svg>
