<svg width="64" height="64" viewBox="0 0 64 64" fill="none" xmlns="http://www.w3.org/2000/svg">
<path d="M25.3905 48.7279C27.2552 48.2836 28.65 47.9513 32 47.9513C35.3499 47.9513 36.7448 48.2836 38.6095 48.7279C39.8304 49.0188 41.2528 49.3577 43.5573 49.6828C49.3815 50.5042 55.0681 49.6827 60.4838 43.0396C65.8995 36.3965 70.221 13.4615 32 14.0097C-6.22111 13.4615 -1.89951 36.3965 3.51621 43.0396C8.93192 49.6827 14.6185 50.5042 20.4427 49.6828C22.7472 49.3577 24.1696 49.0188 25.3905 48.7279Z" fill="#1C265F"/>
<path d="M24.3573 34.9382C24.3573 38.1548 21.7497 39.4883 18.5331 39.4883C15.3165 39.4883 12.709 38.1548 12.709 34.9382C12.709 31.7216 15.3165 28.75 18.5331 28.75C21.7497 28.75 24.3573 31.7216 24.3573 34.9382Z" fill="#04ABDF"/>
<path d="M50.9276 34.9382C50.9276 38.1548 48.3201 39.4883 45.1035 39.4883C41.8869 39.4883 39.2793 38.1548 39.2793 34.9382C39.2793 31.7216 41.8869 28.75 45.1035 28.75C48.3201 28.75 50.9276 31.7216 50.9276 34.9382Z" fill="#04ABDF"/>
</svg>
