<svg width="64" height="64" viewBox="0 0 64 64" fill="none" xmlns="http://www.w3.org/2000/svg">
<g clip-path="url(#clip0_450_3977)">
<path fill-rule="evenodd" clip-rule="evenodd" d="M3.85938 61.0375C3.85938 58.0823 4.13346 54.1232 4.80575 49.7665C17.0816 47.5914 43.9907 41.2242 53.42 33.1565C55.109 36.8023 56.409 40.6744 57.3782 44.4275C49.6578 51.5461 30.2252 58.4669 21.4739 61.0375C14.7925 58.6647 3.85938 61.0375 3.85938 61.0375ZM46.9846 61.0375C54.2734 59.2579 59.74 61.0375 59.74 61.0375C59.74 59.0994 59.5783 56.6588 59.2205 53.919C54.4317 58.1901 49.0679 60.4443 46.9846 61.0375ZM48.9119 25.4447C34.9044 35.8853 14.5163 41.6592 6.07316 43.2411C9.25855 29.7513 16.3853 15.3601 30.5849 15.3601C38.5363 15.3601 44.5108 19.5186 48.9119 25.4447Z" fill="#6079D2"/>
<path fill-rule="evenodd" clip-rule="evenodd" d="M8.00103 41.281C16.8746 39.3341 34.3814 33.9149 47.0214 24.7277C42.9094 19.5015 37.5472 16.035 30.6 16.035C24.074 16.035 19.1325 19.3703 15.3822 24.4618C11.9515 29.1193 9.57366 35.1841 8.00103 41.281ZM48.4303 26.6559C34.8533 36.5197 16.0106 42.0915 7.38572 43.8463C7.08168 45.2138 6.81741 46.5696 6.5897 47.897C12.6343 46.742 21.3877 44.7378 29.8435 42.1238C34.4784 40.691 39.0053 39.0806 42.9392 37.3341C46.4972 35.7545 49.5128 34.0883 51.6813 32.3777C50.7191 30.3604 49.6382 28.4332 48.4303 26.6559ZM52.6865 34.6168C50.343 36.3696 47.3072 38.0041 43.9193 39.5081C39.8707 41.3056 35.2479 42.9477 30.5573 44.3978C21.6009 47.1665 12.3296 49.2556 6.19818 50.3951C5.72751 53.709 5.48778 56.7543 5.4203 59.2458C5.53812 59.2253 5.66205 59.2042 5.79173 59.1825C6.93118 58.9925 8.52072 58.7644 10.3232 58.6121C13.7537 58.3224 18.1265 58.2906 21.6251 59.4401C25.93 58.1383 32.6452 55.8238 39.2363 52.9759C45.7484 50.1622 51.9968 46.8871 55.7251 43.6229C54.9313 40.6157 53.9276 37.5542 52.6865 34.6168ZM56.3596 46.2041C52.2838 49.4547 46.2255 52.5537 40.1944 55.1596C34.8666 57.4616 29.4651 59.4182 25.2736 60.7885C29.1965 61.8329 33.7197 61.7554 37.6598 61.2954C40.155 61.0041 42.3599 60.5666 43.9407 60.2018C44.7303 60.0196 45.3621 59.856 45.7942 59.7386C46.0101 59.6799 46.1761 59.6329 46.2867 59.6009C46.342 59.5849 46.3834 59.5727 46.4104 59.5647L46.4399 59.5558L46.4463 59.5539L46.4474 59.5536L46.4556 59.5511L46.4641 59.5486C48.3026 59.0167 53.1564 56.9628 57.6144 53.079C57.3197 50.9277 56.9067 48.6037 56.3596 46.2041ZM57.9457 55.9092C56.5741 56.9967 55.1924 57.929 53.8817 58.714C54.6194 58.7305 55.3015 58.7757 55.9194 58.8371C56.8087 58.9253 57.5669 59.0471 58.1696 59.1656C58.1319 58.1734 58.0586 57.0812 57.9457 55.9092ZM59.0205 61.8216L59.0175 61.8206L58.9838 61.8101C58.9514 61.8002 58.899 61.7846 58.8276 61.7645C58.6847 61.7245 58.4658 61.6668 58.1778 61.6019C57.6016 61.4719 56.7508 61.3131 55.6806 61.2069C53.5449 60.995 50.5478 60.9936 47.1193 61.8401L47.0995 61.8461C47.0801 61.8519 47.0554 61.8591 47.0257 61.8678C47.0055 61.8737 46.983 61.8803 46.9582 61.8875C46.8356 61.9229 46.657 61.9735 46.4277 62.0358C45.9692 62.1604 45.3072 62.3317 44.4843 62.5216C42.8401 62.901 40.545 63.3567 37.9402 63.6608C32.8084 64.2599 26.2454 64.3005 21.1278 61.7888C18.0923 60.7131 13.9956 60.6923 10.5268 60.9853C8.80428 61.1307 7.28132 61.3492 6.18952 61.5313C5.64418 61.6223 5.20787 61.7039 4.90971 61.7624C4.76067 61.7916 4.64625 61.8151 4.57011 61.831L4.4851 61.849L4.46501 61.8533L4.46072 61.8542L3 62.1764V60.6918C3 57.661 3.27603 53.6277 3.94825 49.2013C4.27333 47.0608 4.69163 44.8245 5.21752 42.5615C6.80842 35.7157 9.40262 28.5438 13.4446 23.0563C17.5075 17.5404 23.0993 13.6533 30.6 13.6533C38.9543 13.6533 45.1794 18.1161 49.6752 24.2672C51.4511 26.6969 52.9661 29.3994 54.2503 32.216C55.9538 35.9522 57.2595 39.9077 58.2306 43.7287C59.0947 47.129 59.6965 50.433 60.0772 53.3961C60.4357 56.1861 60.6 58.687 60.6 60.6918V62.3441L59.0229 61.8224L59.0218 61.822L59.0205 61.8216Z" fill="#3F3F3F"/>
<path d="M7.38572 43.8463C16.0106 42.0915 34.8533 36.5197 48.4303 26.6559C49.6382 28.4332 50.7191 30.3604 51.6813 32.3777C49.5128 34.0883 46.4972 35.7545 42.9392 37.3341C39.0053 39.0806 34.4784 40.691 29.8435 42.1238C21.3877 44.7378 12.6343 46.742 6.5897 47.897C6.81741 46.5696 7.08168 45.2138 7.38572 43.8463Z" fill="white"/>
<path d="M40.1944 55.1596C46.2255 52.5537 52.2838 49.4547 56.3596 46.2041C56.9067 48.6037 57.3197 50.9277 57.6144 53.079C53.1564 56.9628 48.3026 59.0167 46.4641 59.5486L46.4556 59.5511L46.4474 59.5536L46.4463 59.5539L46.4399 59.5558L46.4104 59.5647C46.3834 59.5727 46.342 59.5849 46.2867 59.6009C46.1761 59.6329 46.0101 59.6799 45.7942 59.7386C45.3621 59.856 44.7303 60.0196 43.9407 60.2018C42.3599 60.5666 40.155 61.0041 37.6598 61.2954C33.7197 61.7554 29.1965 61.8329 25.2736 60.7885C29.4651 59.4182 34.8666 57.4616 40.1944 55.1596Z" fill="white"/>
<path d="M24.9227 0L25.6066 1.66042L26.4882 0.100932L26.9636 1.8361L28.0289 0.402135L28.2884 2.18469L29.5207 0.89886L29.5601 2.70068L30.94 1.58327L30.7587 3.37595L32.2643 2.44458L31.8652 4.19983L33.4729 3.4692L32.8623 5.15935L34.5467 4.64097L33.7342 6.23937L35.4686 5.94141L34.467 7.42285L36.2243 7.35002L35.0494 8.69113L36.8017 8.84457L35.4721 10.0242L37.1918 10.4015L35.7284 11.4011L37.3884 11.9963L35.8143 12.8L37.3884 13.6037L35.7284 14.1989L37.1918 15.1985L35.4721 15.5758L36.8017 16.7554L35.0494 16.9088L36.2243 18.25L34.467 18.1771L35.4686 19.6586L33.7342 19.3606L34.5467 20.959L32.8623 20.4406L33.4729 22.1308L31.8652 21.4001L32.2643 23.1554L30.7587 22.224L30.94 24.0167L29.5601 22.8993L29.5207 24.7011L28.2884 23.4153L28.0289 25.1978L26.9636 23.7639L26.4882 25.499L25.6066 23.9395L24.9227 25.6L24.2388 23.9395L23.3573 25.499L22.8818 23.7639L21.8165 25.1978L21.557 23.4153L20.3247 24.7011L20.2853 22.8993L18.9054 24.0167L19.0867 22.224L17.5811 23.1554L17.9802 21.4001L16.3725 22.1308L16.9831 20.4406L15.2987 20.959L16.1112 19.3606L14.3768 19.6586L15.3784 18.1771L13.6211 18.25L14.796 16.9088L13.0437 16.7554L14.3733 15.5758L12.6536 15.1985L14.117 14.1989L12.457 13.6037L14.0311 12.8L12.457 11.9963L14.117 11.4011L12.6536 10.4015L14.3733 10.0242L13.0437 8.84457L14.796 8.69113L13.6211 7.35002L15.3784 7.42285L14.3768 5.94141L16.1112 6.23937L15.2987 4.64097L16.9831 5.15935L16.3725 3.4692L17.9802 4.19983L17.5811 2.44458L19.0867 3.37595L18.9054 1.58327L20.2853 2.70068L20.3247 0.89886L21.557 2.18469L21.8165 0.402135L22.8818 1.8361L23.3573 0.100932L24.2388 1.66042L24.9227 0Z" fill="#CDD8FF"/>
<path fill-rule="evenodd" clip-rule="evenodd" d="M25.6066 1.66042L24.9227 0L24.2388 1.66042L23.3573 0.100932L22.8818 1.8361L21.8165 0.402135L21.557 2.18469L20.3247 0.89886L20.2853 2.70068L18.9054 1.58327L19.0867 3.37595L17.5811 2.44458L17.9802 4.19983L16.3725 3.4692L16.9831 5.15935L15.2987 4.64097L16.1112 6.23937L14.3768 5.94141L15.3784 7.42285L13.6211 7.35002L14.796 8.69113L13.0437 8.84457L14.3733 10.0242L12.6536 10.4015L14.117 11.4011L12.457 11.9963L14.0311 12.8L12.457 13.6037L14.117 14.1989L12.6536 15.1985L14.3733 15.5758L13.0437 16.7554L14.796 16.9088L13.6211 18.25L15.3784 18.1771L14.3768 19.6586L16.1112 19.3606L15.2987 20.959L16.9831 20.4406L16.3725 22.1308L17.9802 21.4001L17.5811 23.1554L19.0867 22.224L18.9054 24.0167L20.2853 22.8993L20.3247 24.7011L21.557 23.4153L21.8165 25.1978L22.8818 23.7639L23.3573 25.499L24.2388 23.9395L24.9227 25.6L25.6066 23.9395L26.4882 25.499L26.9636 23.7639L28.0289 25.1978L28.2884 23.4153L29.5207 24.7011L29.5601 22.8993L30.94 24.0167L30.7587 22.224L32.2643 23.1554L31.8652 21.4001L33.4729 22.1308L32.8623 20.4406L34.5467 20.959L33.7342 19.3606L35.4686 19.6586L34.467 18.1771L36.2243 18.25L35.0494 16.9088L36.8017 16.7554L35.4721 15.5758L37.1918 15.1985L35.7284 14.1989L37.3884 13.6037L35.8143 12.8L37.3884 11.9963L35.7284 11.4011L37.1918 10.4015L35.4721 10.0242L36.8017 8.84457L35.0494 8.69113L36.2243 7.35002L34.467 7.42285L35.4686 5.94141L33.7342 6.23937L34.5467 4.64097L32.8623 5.15935L33.4729 3.4692L31.8652 4.19983L32.2643 2.44458L30.7587 3.37595L30.94 1.58327L29.5601 2.70068L29.5207 0.89886L28.2884 2.18469L28.0289 0.402135L26.9636 1.8361L26.4882 0.100932L25.6066 1.66042ZM26.1048 3.21109L26.4637 4.52129L27.2682 3.43852L27.4641 4.78451L28.3946 3.81359L28.4243 5.17413L29.4663 4.33039L29.3294 5.68401L30.4663 4.98075L30.1649 6.30612L31.3789 5.75442L30.9178 7.03064L32.1896 6.63921L31.5761 7.84615L32.8858 7.62116L32.1295 8.73978L33.4564 8.68478L32.5693 9.69744L33.8924 9.8133L32.8884 10.704L34.1869 10.9889L33.0819 11.7437L34.3354 12.1931L33.1468 12.8L34.3354 13.4069L33.0819 13.8563L34.1869 14.611L32.8884 14.8959L33.8924 15.7867L32.5693 15.9025L33.4564 16.9152L32.1295 16.8602L32.8858 17.9788L31.5761 17.7538L32.1896 18.9608L30.9178 18.5693L31.3789 19.8455L30.1649 19.2938L30.4663 20.6192L29.3294 19.916L29.4663 21.2696L28.4243 20.4258L28.3946 21.7864L27.4641 20.8155L27.2682 22.1614L26.4637 21.0787L26.1048 22.3889L25.4391 21.2113L24.9227 22.4651L24.4063 21.2113L23.7407 22.3889L23.3817 21.0787L22.5772 22.1614L22.3813 20.8155L21.4508 21.7864L21.4211 20.4258L20.3791 21.2696L20.516 19.916L19.3791 20.6192L19.6805 19.2938L18.4665 19.8455L18.9276 18.5693L17.6558 18.9608L18.2693 17.7538L16.9596 17.9788L17.7159 16.8602L16.389 16.9152L17.2761 15.9025L15.953 15.7867L16.957 14.8959L15.6585 14.611L16.7635 13.8563L15.51 13.4069L16.6986 12.8L15.51 12.1931L16.7635 11.7437L15.6585 10.9889L16.957 10.704L15.953 9.8133L17.2761 9.69744L16.389 8.68478L17.7159 8.73978L16.9596 7.62116L18.2693 7.84615L17.6558 6.63921L18.9276 7.03064L18.4665 5.75442L19.6805 6.30612L19.3791 4.98075L20.516 5.68401L20.3791 4.33039L21.4211 5.17413L21.4508 3.81359L22.3813 4.78451L22.5772 3.43852L23.3817 4.52129L23.7407 3.21109L24.4063 4.38864L24.9227 3.13487L25.4391 4.38864L26.1048 3.21109Z" fill="#3F3F3F"/>
</g>
<defs>
<clipPath id="clip0_450_3977">
<rect width="64" height="64" fill="white"/>
</clipPath>
</defs>
</svg>
